<?xml version="1.0" encoding="utf-8"?>
<!-- Generator: Adobe Illustrator 26.0.3, SVG Export Plug-In . SVG Version: 6.00 Build 0)  -->
<svg version="1.1" id="Layer_1" xmlns="http://www.w3.org/2000/svg" xmlns:xlink="http://www.w3.org/1999/xlink" x="0px" y="0px"
	 viewBox="0 0 1000 1000" style="enable-background:new 0 0 1000 1000;" xml:space="preserve">
<style type="text/css">
	.st0{stroke:#000000;stroke-miterlimit:10;}
	.st1{fill:#F98049;stroke:#000000;stroke-width:4;stroke-miterlimit:10;}
	.st2{fill:#B650FE;}
	.st3{fill:#6F97FE;}
	.st4{fill:#7C8AFE;}
	.st5{fill:#7393FE;}
	.st6{fill:#9571FE;}
	.st7{fill:#57AEFE;}
	.st8{fill:#BA4CFE;}
	.st9{fill:#7690FE;}
	.st10{fill:#6B9AFE;}
	.st11{fill:#63A3FE;}
	.st12{fill:#5AABFE;}
	.st13{fill:#C244FE;}
	.st14{fill:#BD49FE;}
	.st15{fill:#A75FFE;}
	.st16{fill:#8F77FE;}
	.st17{fill:#4CBAFE;}
	.st18{fill:#5DA8FE;}
	.st19{fill:#7F87FE;}
	.st20{fill:#C541FE;}
	.st21{fill:#D631FE;}
	.st22{fill:#DA2DFE;}
	.st23{fill:#D036FE;}
	.st24{fill:#AC5AFE;}
	.st25{fill:#9D69FE;}
	.st26{fill:#B254FE;}
	.st27{fill:#66A0FE;}
	.st28{fill:#B354FE;}
	.st29{fill:#A066FE;}
	.st30{fill:#8581FE;}
	.st31{fill:#897DFE;}
	.st32{fill:#9A6CFE;}
	.st33{fill:#54B1FE;}
	.st34{fill:#51B4FE;}
	.st35{fill:#AF57FE;}
	.st36{fill:#8184FE;}
	.st37{fill:#8580FE;}
	.st38{fill:#877EFE;}
	.st39{fill:#8B7BFE;}
	.st40{fill:#976FFE;}
	.st41{fill:#A165FE;}
	.st42{fill:#53B2FE;}
	.st43{fill:#50B5FE;}
	.st44{fill:#4EB7FE;}
	.st45{fill:#4DB8FE;}
	.st46{fill:#DD2AFE;}
	.st47{fill:#8283FE;}
	.st48{fill:#8C7AFE;}
	.st49{fill:#699DFE;}
	.st50{fill:#689EFE;}
	.st51{fill:#679FFE;}
	.st52{fill:#A363FE;}
	.st53{fill:#A462FE;}
	.st54{fill:#AF58FE;}
	.st55{fill:#AD5AFE;}
	.st56{fill:#DF27FE;}
	.st57{fill:#8284FE;}
	.st58{fill:#CA3CFE;}
	.st59{fill:#DD29FE;}
	.st60{fill:#887DFE;}
	.st61{fill:#4EB8FE;}
	.st62{fill:#CD39FE;}
	.st63{fill:#CB3CFE;}
	.st64{fill:#51B5FE;}
	.st65{fill:#C83EFE;}
	.st66{fill:#CE38FE;}
	.st67{fill:#C93DFE;}
	.st68{fill:#CC3AFE;}
	.st69{fill:#C93EFE;}
	.st70{fill:#FFFFFF;stroke:#000000;stroke-width:0.75;stroke-miterlimit:10;}
	.st71{stroke:#000000;stroke-width:24;stroke-miterlimit:10;}
	.st72{font-family:'Gabriola';}
	.st73{font-size:812.504px;}
	.st74{stroke:#000000;stroke-width:22;stroke-miterlimit:10;}
	.st75{font-family:'CambriaMath';}
	.st76{font-size:715.25px;}
	.st77{fill:#FCD1D1;}
	.st78{fill:#ECE2E1;}
	.st79{fill:#D3E0DC;}
	.st80{fill:#AEE1E1;}
</style>
<text transform="matrix(0.9169 0 0 1 -57.3898 1830.8599)" class="st1 st72" style="font-size:844.1562px;">M</text>
<text transform="matrix(1.7628 0 0 1 1165.1438 1956.5529)" style="fill:none;stroke:#FF0000;stroke-width:4;stroke-miterlimit:10; font-family:'ArialMT'; font-size:533.9179px;">T</text>
<rect x="1549.1" y="638.5" class="st0" width="965" height="1000"/>
<g>
	<path class="st1" d="M-839.7,1131.4c-209.1,0-418.3,0-627.4,0c-1.8,0-3.7,0-5.5,0c-3.2-0.1-3.7-0.6-2.7-3c2.6-5.6,5.2-11.2,8-16.8
		c6.2-12.4,13-24.5,20.3-36.5c11.2-18.2,23.5-36,37.2-53c6.8-8.5,3.2-7.1,15.8-7.1c369.8,0,739.5,0,1109.3,0c10.7,0,8-1.3,14,6.2
		c17.4,21.7,32.6,44.4,46.1,67.9c6.6,11.5,12.6,23.2,18.2,35c0.6,1.2,1.1,2.5,1.7,3.8c1.3,3.2,1.2,3.4-2.8,3.5c-1.8,0-3.7,0-5.5,0
		C-421.8,1131.4-630.8,1131.4-839.7,1131.4z"/>
	<path class="st1" d="M-840.3,1007.3c-182.8,0-365.6,0-548.5,0c-2,0-4.1,0-6.1,0c-1.6,0-2.1-0.9-1.1-2c5-5.7,9.9-11.4,15.1-17
		c11.9-12.9,24.6-25.3,37.9-37.4c12.8-11.7,26.4-22.8,40.3-33.6c10.7-8.2,21.7-16.2,33.1-23.7c2.2-1.5,4.4-2.3,7.2-2.1
		c1.4,0.1,2.9,0,4.3,0c278.8,0,557.6,0,836.4,0c8.5,0,8.4,0.1,14.8,4.4c23.7,15.9,45.6,33.4,66.4,51.8c20.3,17.9,38.9,37,56,56.9
		c0.3,0.4,0.6,0.9,0.9,1.3c0.4,0.6-0.2,1.4-1.1,1.4c-2.2,0.1-4.5,0.1-6.7,0.1C-474.2,1007.3-657.2,1007.3-840.3,1007.3z"/>
	<path class="st1" d="M-839.3,1294.4c222.8,0,445.5,0,668.3,0c11,0,8.8-1.2,9.6,7.7c1,11,0.7,22.1,0.6,33.1
		c-0.1,8.5-0.7,17-1.2,25.6c0,0.8-0.2,1.7-0.3,2.5c-0.3,1.4-1.1,1.9-2.9,2c-2.2,0.1-4.5,0-6.7,0c-326.5,0-653,0-979.5,0
		c-119,0-238,0-357.1,0c-2,0-4.1,0-6.1-0.1c-1.4,0-2.2-0.7-2.3-1.9c-0.3-3-0.8-6-0.9-9c-0.7-18.4-0.7-36.8-0.1-55.2
		c0-0.8,0-1.7,0.1-2.5c0.2-1.8,0.7-2.2,3.1-2.3c2-0.1,4.1,0,6.1,0C-1285.7,1294.4-1062.5,1294.4-839.3,1294.4z"/>
	<path class="st1" d="M-840.7,1287.2c-221.8,0-443.5,0-665.3,0c-0.8,0-1.6,0-2.4,0c-10.1-0.1-9.2,1-8.3-7.7
		c2-19.5,5.1-38.9,9.5-58.1c0.2-0.7,0.3-1.3,0.5-2c0.8-2.6,1.3-3,4.6-3.1c1.4-0.1,2.9,0,4.3,0c438.8,0,877.6,0,1316.4,0
		c1.4,0,2.9,0,4.3,0c2.8,0.1,3.6,0.6,4.1,2.9c1.3,5.9,2.7,11.8,3.8,17.8c1.2,6.4,2.4,12.9,3.4,19.3c0.7,4.3,1.1,8.6,1.6,13
		c0.5,4.5,0.9,9,1.3,13.5c0.1,1,0.1,2,0,3c-0.1,0.7-0.6,1.2-1.5,1.3c-0.6,0.1-1.2,0.1-1.8,0.1c-2,0-4.1,0-6.1,0
		C-395.1,1287.2-617.9,1287.2-840.7,1287.2z"/>
	<path class="st1" d="M-839.4,1372.5c222.2,0,444.3,0,666.5,0c1.4,0,2.9,0,4.3,0c5,0,5.6-0.2,4.9,4.4c-1.3,7.4-1.8,15-3,22.4
		c-1.6,9.3-3.5,18.5-5.4,27.7c-0.9,4.4-2,8.9-3.1,13.3c-0.6,2.4-1.1,2.7-4.1,2.8c-1.6,0-3.3,0-4.9,0c-437,0-873.9,0-1310.9,0
		c-1.8,0-3.7,0-5.5,0c-2.3-0.1-2.9-0.4-3.4-2.2c-1.1-3.9-2.1-7.8-3-11.8c-2.9-12.6-5.2-25.4-7.2-38.1c-0.8-5.3-1.2-10.6-1.7-16
		c-0.2-1.9,0.4-2.3,2.8-2.4c2-0.1,4.1,0,6.1,0C-1284.5,1372.5-1061.9,1372.5-839.4,1372.5z"/>
	<path class="st1" d="M-176,1208.6c-1,0.2-1.8,0.4-2.5,0.4c-2,0.1-4.1,0-6.1,0c-436.4,0-872.8,0-1309.2,0c-12.3,0-10.5,0.7-8.1-8.2
		c5.4-19.6,12-38.9,20.1-57.8c0.4-0.9,0.8-1.9,1.2-2.8c0.5-1.1,1.4-1.6,2.7-1.6c2,0,4.1,0,6.1,0c128,0,256,0,384,0
		c293.1,0,586.2,0,879.3,0c9.5,0,8-1.4,11.4,6.6c8.1,19.1,14.4,38.6,20,58.3C-176.5,1205.2-176.3,1206.8-176,1208.6z"/>
	<path class="st1" d="M-1253,882.8c4.7-2.9,9.3-5.9,14-8.7c22.5-13.3,45.8-25.6,70-36.6c32.3-14.7,65.8-27.1,100.6-37.4
		c25.3-7.5,51.1-13.6,77.3-18.5c16.2-3.1,32.6-5.5,49.2-7.6c11.3-1.4,22.6-2.4,33.9-3.6c7.7-0.8,15.4-0.9,23.1-1.4
		c25-1.7,50.1-1.1,75.1-0.7c10,0.1,19.9,0.7,29.8,1.7c4.4,0.4,8.9,0.7,13.4,1c15.6,1.2,31.1,3.1,46.5,5.4
		c19.2,2.8,38.3,6.3,57.1,10.5c26.2,5.8,51.8,12.8,77,21.2c19.1,6.3,37.8,13.3,56.1,21.1c35.7,15.1,69.6,32.7,101.6,52.7
		c0.5,0.3,0.9,0.7,1.3,1c0,1-0.8,1-1.6,1c-1.8,0-3.7,0-5.5,0c-270.4,0-540.9,0-811.3,0c-2.4,0-4.9,0-7.3,0
		C-1252.8,883.4-1252.9,883.1-1253,882.8z"/>
	<path class="st1" d="M-839.6,1489.3c213.2,0,426.4,0,639.6,0c2.2,0,4.5,0,6.7,0.1c1.5,0.1,2.2,0.8,1.7,2c-3,7.5-6.1,14.9-9.2,22.3
		c-1,2.4-2.3,4.6-3.4,6.9c-3.1,1-6.4,0.5-9.6,0.5c-417.6,0-835.3,0-1252.9,0c-2.2,0-4.5,0-6.7,0c-1.4,0-2.3-0.6-2.8-1.6
		c-0.4-0.8-0.8-1.5-1.2-2.3c-3.3-8.1-6.7-16.1-10-24.2c-0.3-0.8-0.6-1.6-0.7-2.4c0-0.3,0.6-0.8,1-1c0.5-0.2,1.2-0.2,1.8-0.3
		c2,0,4.1,0,6.1,0C-1266,1489.3-1052.8,1489.3-839.6,1489.3z"/>
	<path class="st1" d="M-839.4,1450.7c217.1,0,434.2,0,651.3,0c2.2,0,4.5,0,6.7,0c2.2,0.1,2.9,0.7,2.4,2.6c-1.1,4.1-2.3,8.1-3.6,12.2
		c-1.5,4.7-3.1,9.3-4.7,14c-0.9,2.5-1,2.5-4.2,2.6c-1.2,0-2.4,0-3.7,0c-429.7,0-859.4,0-1289.1,0c-8.3,0-7,0.7-9.3-5.9
		c-2.4-7.1-4.5-14.2-6.8-21.3c-0.3-0.8-0.5-1.6-0.6-2.4c-0.1-1,0.5-1.6,1.7-1.6c0.8-0.1,1.6-0.1,2.4-0.1c1.8,0,3.7,0,5.5,0
		C-1274,1450.7-1056.7,1450.7-839.4,1450.7z"/>
	<path class="st1" d="M-839.9,1528.4c207.7,0,415.3,0,623,0c2.2,0,4.5,0,6.7,0.1c1.4,0.1,2.1,0.9,1.6,2.1c-1.1,2.4-2.1,4.7-3.4,7
		c-3.5,6.8-7.2,13.5-10.7,20.2c-0.9,1.8-2.3,2.6-4.7,2.5c-1.4-0.1-2.9,0-4.3,0c-405.6,0-811.1,0-1216.7,0c-0.6,0-1.2,0-1.8,0
		c-5.9,0-5.5,0.2-7.7-4c-4.1-7.8-8.2-15.7-12.3-23.5c-0.5-0.9-0.9-1.9-1.2-2.8c-0.3-0.7,0.3-1.3,1.2-1.5c0.6-0.1,1.2-0.1,1.8-0.1
		c1.8,0,3.7,0,5.5,0C-1255.2,1528.4-1047.6,1528.4-839.9,1528.4z"/>
	<path class="st1" d="M-1450.5,1567.8c1.1-0.1,1.9-0.3,2.7-0.3c1.8,0,3.7,0,5.5,0c401.5,0,803,0,1204.5,0c1.6,0,3.3,0,4.9,0
		c4.3,0.1,4.5,0.5,2.6,3.8c-0.7,1.2-1.4,2.4-2.2,3.6c-4.8,7.4-9.6,14.7-14.4,22.1c-1.1,1.7-2.4,2.6-4.8,2.4c-1.4-0.1-2.9,0-4.3,0
		c-389.3,0-778.5,0-1167.8,0c-8.3,0-6.8,0.9-10.7-5.2c-4.6-7.1-9.1-14.2-13.6-21.3C-1449.1,1571.5-1450.3,1570.1-1450.5,1567.8z"/>
	<path class="st1" d="M-840,1606.6c192.4,0,384.8,0,577.2,0c2.2,0,4.5,0,6.7,0.1c1,0,1.5,0.7,1.1,1.4c-0.6,1.1-1.2,2.1-2,3.1
		c-6.2,8.1-12.5,16.1-18.6,24.2c-1.9,2.5-4.2,3.4-7.5,3.1c-1.2-0.1-2.4,0-3.7,0c-368.7,0-737.4,0-1106.1,0c-1.6,0-3.3-0.1-4.9,0
		c-2.9,0.3-4.5-0.9-6-2.7c-7-8.6-13.8-17.4-20.3-26.3c-0.2-0.3-0.4-0.6-0.6-0.9c-0.8-1.3-0.4-2,1.2-2c1.8-0.1,3.7,0,5.5,0
		c31,0,62,0,92.9,0C-1163.2,1606.6-1001.6,1606.6-840,1606.6z"/>
	<path class="st1" d="M-839.7,1645.7c182,0,364,0,546.1,0c2.6,0,5.2-0.4,7.8,0.4c0.2,2.6-2.4,4.1-4,5.9
		c-6.9,7.6-14.1,15.2-21.1,22.8c-1.5,1.6-3.1,2.5-5.6,2.4c-1.4-0.1-2.9,0-4.3,0c-345.9,0-691.8,0-1037.7,0c-8.8,0-6.7,1.3-13-5.4
		c-6.2-6.4-12.1-13-18.2-19.5c-1.5-1.6-2.8-3.3-4.1-5c-0.5-0.6-0.1-1.4,0.8-1.4c2-0.1,4.1-0.1,6.1-0.1c99.7,0,199.3,0,299,0
		C-1005.2,1645.7-922.4,1645.7-839.7,1645.7z"/>
</g>
<g>
	<path class="st2" d="M183.9,2081.5c4.5,5.3,8.3,11.1,11.7,17c1,2.3-1,2.7-2.7,3c-2.1,0.4-4.2,0.3-6.3,0.3c-294,0-588.1,0-882.1,0
		c-2.3,0-4.5,0.1-6.7-0.3c-2.3-0.5-3.3-1.7-2.3-3.8c1.8-3.8,4.5-7.1,6.9-10.6c1.1-1.7,1.9-3.6,3.7-4.8c2.2-0.5,4.5-0.5,6.7-0.5
		c286.8,0,573.6,0,860.5,0C176.8,2081.8,180.3,2082,183.9,2081.5z"/>
	<path class="st3" d="M-771.3,2390.8c-0.2-0.2-0.4-0.5-0.5-0.7c-0.5-4.9-1.8-9.8-1.5-14.8c-1-2.4,1-2.7,2.7-3
		c2.1-0.4,4.2-0.3,6.3-0.3c339.5,0,679,0,1018.6,0c0.6,0,1.3,0,1.9,0c7.6,0.1,8,0.6,7,7.7c0.3,4.7-1,9.2-1.5,13.9
		c0,0.3-0.3,0.5-0.5,0.7c-1.9-4.4-5.7-4.9-10.4-4.9c-337.4,0.1-674.9,0.1-1012.3,0.1C-764.8,2389.4-768.2,2389.5-771.3,2390.8z"/>
	<path class="st4" d="M266,2322.6c0.1,4,0.2,8,0.2,12c0,2.1-0.4,2.3-3,2.4c-1.1,0-2.3,0-3.4,0c-343.1,0-686.2,0-1029.3,0
		c-7.1,0-6.6,0.3-6.6-5.8c0-4,0.1-8,0.1-12.1c0-1.3-0.2-2.6,0.7-3.8c0.3,0.5,0.2-0.2,0.3,0.3c0.9,6.4,6,6.3,11.6,6.3
		c341.4-0.1,682.7,0,1024.1-0.1C262.6,2322.1,264.4,2321.8,266,2322.6z"/>
	<path class="st5" d="M263.3,2379.7c-0.4-6.9,1.2-6.3-7.5-6.3c-340.7,0-681.3,0-1022,0c-1.6,0-3.2,0-4.8,0c-1.4,0-2,0.8-2.2,1.9
		c-0.6-0.7-0.7-1.5-0.7-2.4c-0.1-2.7-0.1-5.3-0.2-8c-0.9-5.9-0.4-6.5,6.1-6.7c1.3,0,2.6,0,3.9,0c339.9,0,679.7,0,1019.6,0
		c3.3,0,6.8-0.7,9.8,1.4c0,3.8,0,7.6-0.7,11.3c-0.3,1.8-0.3,3.6-0.4,5.5C264,2377.6,264.1,2378.7,263.3,2379.7z"/>
	<path class="st6" d="M251.6,2222.7c1.6,3.3,2,6.9,2.9,10.3c0.4,1.5,0.7,3.1,0.9,4.6c0.1,0.8-0.4,1.3-1.4,1.4c-0.5,0-1,0.1-1.4,0.1
		c-1.3,0-2.6,0-3.9,0c-335.8,0-671.6,0-1007.4,0c-1.8,0-3.5,0-5.3-0.1c-1,0-1.4-0.7-1.2-1.5c1.1-4.2,1.7-8.4,3.5-12.5
		c2.7-0.6,5.5-0.3,8.2-0.3c331.7,0,663.5,0,995.2,0C245.1,2224.7,248.8,2225.3,251.6,2222.7z"/>
	<path class="st7" d="M-747.3,2482.9c-2.1-4.1-3.7-8.4-4.8-12.8c0.1-2,1.9-2,3.4-2.2c2.2-0.3,4.5-0.2,6.8-0.2
		c324.6,0,649.1,0,973.7,0c2.4,0,4.8-0.1,7.2,0.3c2.4,0.4,4,1.3,2.8,3.8c-1,4.5-2.7,8.8-4.8,12.9c-3-1.2-6.3-1.2-9.5-1.2
		c-16,0-31.9,0-47.9,0c-304.7,0-609.4,0-914.1-0.1C-738.6,2483.3-743,2484.3-747.3,2482.9z"/>
	<path class="st8" d="M183.9,2081.5c-0.1,0.7-0.4,1.4-1.3,1.6c-0.5,0.1-1,0.1-1.4,0.1c-1.5,0-2.9,0-4.4,0c-287.9,0-575.8,0-863.7,0
		c-1.6,0-3.2,0-4.8,0c-0.8,0-1.6-0.3-2.1-0.9c0,0,0,0,0,0c0.7-0.4,0.5-1.2,1.1-1.6l0,0c0.3-0.3,0.7-0.7,0.8-1.1
		c3-4.9,6.5-9.6,10.5-13.9c4.5,1.4,9.1,1.5,13.8,1.5c275.1,0,550.3,0,825.4,0c4.9,0,9.7-0.3,14.4-1.2c3.6,4.1,7,8.2,9.7,12.8
		c0.5,0.5,0.3,1.4,1.1,1.7l-0.1-0.1C183.1,2080.9,183.5,2081.2,183.9,2081.5L183.9,2081.5z"/>
	<path class="st9" d="M265.2,2359.6c-343.4,0-686.9,0-1030.3,0c-1,0-1.9,0-2.9,0c-6.7,0-5.9-0.3-6.1,5.3c-0.2-0.4-0.6-0.8-0.6-1.2
		c-0.2-4.7-0.4-9.5-0.5-14.2c0-1.3,0.6-1.9,2-1.9c1.8-0.1,3.5,0,5.3,0c342.3,0,684.6,0,1027,0c1.6,0,3.2,0,4.8,0
		c1.6,0.1,2.2,0.4,2.2,1.7C266,2352.8,266.3,2356.3,265.2,2359.6z"/>
	<path class="st10" d="M-771.3,2390.8c0.6-2.7,0.6-2.7,3.2-2.8c1.1,0,2.3,0,3.4,0c339.6,0,679.1,0,1018.7,0c1.6,0,3.2,0,4.8,0.1
		c1.5,0.1,2.3,0.9,2.5,2.2c0.1,1.3,0.1,2.6,0.2,3.9c-0.1,2,0.3,4-0.9,5.9c-1.6,1.1-3.5,1.3-5.5,1.3c-2.3,0-4.5,0-6.8,0
		c-335.4,0-670.7,0-1006.1,0c-4,0-8.1-0.5-11.5,2.2C-770.7,2399.5-771.4,2395.2-771.3,2390.8z"/>
	<path class="st11" d="M255.5,2425.2c0.1,2.6-1,5.1-1.6,7.6c-0.4,1.5-0.9,1.8-2.8,1.8c-1.4,0.1-2.9,0-4.4,0c-334.5,0-669,0-1003.6,0
		c-0.2,0-0.3,0-0.5,0c-6.9-0.1-5.4,0.8-7.2-5.5c-0.2-0.7-0.1-1.4-0.1-2.1c-0.5-4.1,0.4-5.2,4.7-5.7c2.1-0.3,4.2-0.2,6.3-0.2
		c333.4,0,666.7,0,1000.1,0c2.9,0,5.8-0.4,8.5,0.9C256.3,2423,256,2424.1,255.5,2425.2z"/>
	<path class="st12" d="M241.9,2471.7c-0.6-2.6-0.6-2.6-2.7-2.6c-1.3,0-2.6,0-3.9,0c-327,0-654,0-980.9,0c-1.5,0-2.9,0-4.4,0
		c-0.9,0-1.5,0.4-2,1c-1.4-2.7-2.6-5.5-2.9-8.6c-0.7-0.8,0-2-0.9-2.8l0,0c-1-2.5,1.3-2.5,2.9-2.9c2-0.4,4.2-0.3,6.3-0.3
		c327.7,0,655.4,0,983.1,0c2.3,0,4.5-0.1,6.8,0.3c2.6,0.4,3.7,1.6,2.7,4C245.1,2463.9,244,2467.9,241.9,2471.7z"/>
	<path class="st13" d="M138.3,2027.4c5.1,4.6,9.6,9.7,14.1,14.7c0.6,0.7,0.2,1.5-0.8,1.5c-1.4,0.1-2.9,0.1-4.4,0.1
		c-268.2,0-536.4,0-804.6,0c-1.6,0-3.1,0-4.7,0c0-0.6-0.2-0.9,0-1.1c4.5-5.4,9.1-10.7,14.6-15.4c3.3,0.6,6.7,0.4,10.1,0.4
		c255,0,510,0,765.1,0C131.2,2027.6,134.8,2027.4,138.3,2027.4z"/>
	<path class="st14" d="M172.2,2066c-0.1,0.6-0.2,1.3-0.9,1.4c-2.2,0.5-4.3,1.3-6.6,1.2c-1-0.1-1.9,0-2.9,0c-277.9,0-555.8,0-833.7,0
		c-2.7,0-5.5,0.2-8.1-0.9c-1-0.4-1.3-1.2-1.5-2c2-3.6,5.2-6.6,7.6-9.9c0.6-0.8,1.4-1.1,2.5-1.1c1.6,0,3.2,0,4.8,0c193,0,386,0,579,0
		c81.6,0,163.2,0,244.8,0c6.2,0,6.2,0,9.8,4.5c0.6,0.7,1.3,1.3,1.4,2.2c0.1,0.5,0.5,0.9,0.9,1.2l0,0c0.2,0.4,0.6,0.6,0.9,0.9l0,0.1
		c0.6,0.4,0.4,1.3,1.1,1.6l-0.1-0.1C171.5,2065.4,171.9,2065.7,172.2,2066L172.2,2066z"/>
	<path class="st15" d="M-739.3,2161.5c0.5-2.7,2.1-5.1,3.1-7.7c0.5-1.3,1.6-1.7,3-1.7c1.6,0,3.2,0,4.8,0c158.5,0,317,0,475.4,0
		c157.5,0,315,0,472.5,0c1.6,0,3.2,0,4.8,0c1.1,0,1.8,0.5,2.2,1.4c1.2,2.9,3,5.7,3.7,8.8c1,2.5-1.3,2.6-2.9,2.9
		c-2.7,0.5-5.5,0.3-8.2,0.3c-231.1,0-462.1,0-693.2,0c-84.7,0-169.3,0-254,0c-2.6,0-5.2,0.2-7.7-0.2
		C-737.9,2164.9-740.3,2164.4-739.3,2161.5z"/>
	<path class="st16" d="M-769.3,2259.6c-0.3-2.8,0.8-5.4,1.2-8.1c0.1-1,1-1.4,2.1-1.4c1.4,0,2.9,0,4.4,0c44.2,0,88.4,0,132.5,0
		c293.3,0,586.6,0,879.8,0c1.6,0,3.2,0,4.8,0c2.5,0.1,3.1,0.4,3.5,2.7c0.3,1.4,0.3,2.8,0.4,4.3c1.4,3.6-0.7,5.1-4.3,5.6
		c-2.1,0.3-4.2,0.2-6.3,0.2c-336.6,0-673.1,0-1009.7,0c-2.7,0-5.5,0.3-8.1-0.9C-769.9,2261.3-769.9,2260.5-769.3,2259.6z"/>
	<path class="st17" d="M219.7,2523.3c-0.8,2.8-2.5,5.3-3.9,7.8c-0.5,0.9-1.3,1.3-2.3,1.3c-0.6,0-1.3,0-1.9,0c-1.1,0-2.3,0-3.4,0
		c-308.7,0-617.4,0-926,0c-7.9,0-6.1,1-9.6-5.4c-0.8-1.5-1.9-3-2.2-4.8c-1-2.5,1.3-2.6,2.9-2.9c2-0.4,4.2-0.3,6.3-0.3
		c310.4,0,620.8,0,931.1,0c2.3,0,4.5-0.1,6.7,0.3C219.6,2520.1,220.8,2521.1,219.7,2523.3z"/>
	<path class="st18" d="M245.9,2459.8c-0.6-2.7-0.6-2.8-3.1-2.8c-1.3,0-2.6,0-3.9,0c-329.3,0-658.7,0-988,0c-1.6,0-3.2,0-4.8,0.1
		c-1.2,0-1.6,0.8-1.8,1.7c-1.9-3.7-2.7-7.6-3.8-11.5c-0.2-0.8,0.2-1.4,1.2-1.5c0.6-0.1,1.3-0.1,1.9-0.1c1.5,0,2.9,0,4.4,0
		c331.7,0,663.5,0,995.2,0c2.3,0,4.8-0.7,7,0.6c0,2-0.8,3.9-1.4,5.8C247.7,2454.6,247.5,2457.4,245.9,2459.8z"/>
	<path class="st19" d="M266,2322.6c-1.2,0.5-2.3,0.9-3.7,0.9c-1.3-0.1-2.6,0-3.9,0c-342,0-684.1,0-1026.1,0c-8.5,0-7.3,0.8-7.5-6.7
		c0-0.4-0.1-0.9-0.1-1.3c0-0.8,0-1.6,0-2.4c1.4-1.1,3.2-1.3,5-1.4c1.9-0.1,3.9,0,5.8,0c339.6,0,679.2,0,1018.8,0
		c2.3,0,4.5,0,6.8,0.1c2.8,0.1,4.6,1.1,4.7,3.8C266.2,2318,266.3,2320.3,266,2322.6z"/>
	<path class="st20" d="M138.3,2027.4c-0.6,1-1.4,1.5-2.7,1.6c-1.3,0-2.6,0-3.9,0c-257.7,0-515.4,0-773.1,0c-1.4,0-2.9,0-4.3-0.1
		c-1.2-0.1-1.5-0.9-1.8-1.7c0,0,0,0.1,0,0.1c0.5-0.2,0.8-0.6,1-1.1c0.5-0.7,1-1.5,1.6-2.1c4.1-3.8,7.6-8,12.1-11.4
		c0.3,0.1,0.6,0.2,0.9,0.2c3.1,0.8,6.3,0.9,9.6,0.9c245.5,0,491.1,0,736.6,0c2.9,0,5.8-0.1,8.7-0.3c0.3,0,0.6-0.1,1-0.1
		c3.6,2.8,7,5.8,9.6,9.3c0.2,0.5,0.5,0.8,1,1.1l-0.1-0.1c0.2,0.4,0.6,0.7,1,0.9l0,0c0.3,0.4,0.6,0.6,1,0.9l0,0
		c0.3,0.3,0.6,0.6,0.9,0.9l0,0C137.7,2026.7,138,2026.9,138.3,2027.4L138.3,2027.4z"/>
	<path class="st21" d="M-6.8,1923.9c2.3,0.4,4.1,1.7,6,2.7c10.3,5.1,20.4,10.5,30.2,16.2c1,0.6,2.3,1,2.9,2.1
		c-0.2,0.8-0.9,0.7-1.5,0.7c-1.4,0-2.9,0-4.4,0c-187.7,0-375.3,0-563,0c-1.8,0-3.7,0.2-5.5-0.2c0-1,0.7-1.2,1.2-1.5
		c11.3-6.7,22.9-12.9,34.7-18.7c0.6-0.3,1.2-0.4,1.8-0.6c2,0.6,4.1,0.4,6.2,0.4c160.3,0,320.7,0,481,0
		C-13.6,1925-10,1925.9-6.8,1923.9z"/>
	<path class="st22" d="M-6.8,1923.9c0.4,1.8,0.1,2.4-1.3,2.5c-1.6,0.1-3.2,0.1-4.8,0.1c-55.3,0-110.6,0-165.9,0
		c-106.1,0-212.1,0-318.2,0c-1.5,0-2.9,0-4.4,0c-1.5,0-2.4-0.7-3-1.8c0,0,0,0,0,0c0.6-0.4,1.6-0.2,2-0.9l-0.1,0.1
		c0.6-0.3,1.6-0.2,2-0.9l-0.1,0.1c0.5-0.1,0.8-0.5,1.2-0.7l0,0c0.5-0.5,1.4-0.4,1.9-0.9l0,0c0.5-0.5,1.4-0.3,1.9-0.9
		c0.6-0.4,1.2-0.9,1.9-1.2c11.6-5.4,23.5-10.3,35.6-14.9c1.3-0.5,2.7-0.8,4.1-1.2c2.7,0.7,5.4,0.4,8.2,0.4c128.3,0,256.7,0,385,0
		c1.6,0,3.2-0.2,4.8-0.5c0.8,0.2,1.6,0.2,2.3,0.5c9.1,3.4,18,6.9,26.8,10.8c0.6,0.3,1.1,0.6,1.6,0.9c0.4,0.3,0.8,0.6,1.3,0.7
		c0.3-0.1,0.5,0,0.6,0.2c0.4,0.3,0.8,0.6,1.3,0.7c0.3-0.1,0.5,0,0.6,0.2c0.4,0.3,0.8,0.6,1.3,0.7c0.3-0.1,0.5,0,0.6,0.2
		c0.4,0.3,0.8,0.6,1.3,0.7c0.3-0.1,0.5,0,0.6,0.2c0.4,0.3,0.8,0.6,1.3,0.7c0.3-0.1,0.5,0,0.7,0.2c0.3,0.3,0.7,0.5,1.1,0.7l-0.1-0.1
		c0.4,0.7,1.4,0.6,2,0.9l-0.1,0c0.4,0.7,1.4,0.5,2,0.9l-0.1,0c0.5,0.6,1.4,0.5,2,0.9l0,0C-8.2,1923.6-7.3,1923.4-6.8,1923.9
		L-6.8,1923.9z"/>
	<path class="st23" d="M-571,1963.2c2.4-2.3,5.5-3.9,8.3-5.8c0.9-0.7,2-0.9,3.2-0.9c1.1,0,2.3,0,3.4,0c200.9,0,401.8,0,602.7,0
		c1.1,0,2.3,0,3.4,0c1.2,0,2.2,0.2,3.2,0.8c4.7,3.1,9.4,6,13.7,9.5c0.3,0.3,0.6,0.7,1.1,0.9l-0.1-0.1c0.7,0.9,1.9,1.2,2.8,1.9l0,0
		c0.4,0.3,0.6,0.6,1,0.8l0,0c0.2,0.6,0.1,1.1-0.3,1.6c-1.3,1.3-3.1,1.4-4.9,1.5c-1.6,0.1-3.2,0.1-4.8,0.1c-210.7,0-421.4,0-632.1,0
		c-3.4,0-7.2,0.9-10-1.9c-0.6-1,0.1-1.6,0.8-2.2l-0.1,0.1c0.5-0.2,0.8-0.5,1.1-0.9l0,0c0.4-0.2,0.7-0.5,1.1-0.8l0,0
		c0.5-0.5,1.5-0.3,1.8-1.1l-0.1,0.1c0.5-0.1,0.9-0.5,1.1-0.9l-0.1,0.1c0.5-0.2,0.8-0.5,1.1-0.8l0,0c0.3-0.3,0.7-0.5,1-0.8l0.1,0
		C-572.3,1963.9-571.3,1964-571,1963.2z"/>
	<path class="st24" d="M-726.8,2135.5c1-2.6,2-5.3,4-7.5c4.2,0.4,8.4,0.3,12.6,0.3c304.3,0,608.6,0,912.9,0c3.4,0,6.8-0.4,10.1,0.6
		c0.9,0.4,1.7,0.9,2.1,1.7l0,0c0.6,0.4,0.4,1.2,0.9,1.7c0.2,0.2,0.3,0.4,0.2,0.6c0.4,0.7,0.2,1.5,1,2l-0.1-0.1
		c0.4,0.6,0.3,1.4,1,1.8l0,0c-0.1,2.3-2,2.7-4,3c-2.2,0.3-4.5,0.2-6.8,0.2c-307.7,0-615.4,0-923.1,0c-2.4,0-4.9,0.2-7.2-0.3
		C-725.5,2139-727.8,2138.4-726.8,2135.5z"/>
	<path class="st25" d="M-754.9,2201.9c0.1-2.1,0.9-4.1,1.9-6c4.3,0.4,8.7,0.5,13,0.5c323.7,0,647.5,0,971.2,0c4,0,8.1,0.6,11.5-2.1
		c1.4,3,2.7,6,3,9.3c1,2.3-1,2.7-2.7,3.1c-1.9,0.4-3.8,0.3-5.8,0.3c-327.6,0-655.2,0-982.8,0c-1.9,0-3.9,0.1-5.8-0.2
		C-754.2,2206.2-756,2204.9-754.9,2201.9z"/>
	<path class="st26" d="M201.3,2107.3c1.8,2,3.1,4.2,4,6.7c0.3,0.6,0.2,1.1-0.2,1.6c-1.4,1.5-3.4,1.6-5.3,1.7
		c-2.4,0.1-4.8,0.1-7.3,0.1c-298.3,0-596.6,0-894.8,0c-2.9,0-5.8,0.2-8.7-0.2c-2.6-0.3-4.4-1.2-3.2-4c0.9-2.4,2.2-4.7,4-6.6
		c3.7,0.3,7.4,0.3,11.1,0.3c71.6,0,143.1,0,214.7,0c226,0,452,0,678,0C196.2,2106.8,198.7,2106.7,201.3,2107.3z"/>
	<path class="st27" d="M255.5,2422.5c-185.1,0-370.2,0-555.3,0c-151.9,0-303.7,0-455.6,0c-1.5,0-2.9,0-4.4,0
		c-3.8,0.2-4.4,0.8-4.8,4.5c-1.1-1.3-1-2.8-1-4.3c-0.8-1.1,0.1-2.6-0.9-3.6c-0.2-0.2-0.2-0.5-0.1-0.7c-1.1-2.4,0.3-3.5,2.8-3.9
		c2.7-0.4,5.5-0.3,8.2-0.3c141.9,0,283.7,0,425.6,0c191.4,0,382.7,0,574.1,0c2.4,0,4.8-0.1,7.3,0.1c2.1,0.1,4.2,0.3,5.3,2.4
		c0.2,1.4,0.5,2.8-0.2,4.2c-0.1,0.5-0.1,1.1-0.2,1.6C256,2422.9,255.7,2422.9,255.5,2422.5z"/>
	<path class="st28" d="M201.3,2107.3c-0.5,0.6-1.3,0.8-2.1,0.8c-1.6,0-3.2,0-4.8,0c-219.3,0-438.6,0-658,0c-5.8,0-11.6,0.2-17.3,0
		c-5.6-0.1-11.3,0-16.9,0c-5.8,0-11.6,0-17.4,0c-5.6,0-11.3,0-16.9,0c-5.8,0-11.6,0-17.4,0c-5.6,0-11.3,0-16.9,0
		c-5.8,0-11.6,0-17.4,0c-5.6,0-11.3,0-16.9,0c-5.8,0-11.6,0-17.4,0c-5.6,0-11.3,0-16.9,0c-5.8,0-11.6,0-17.4,0c-5.6,0-11.3,0-16.9,0
		c-5.8,0-11.6,0-17.4,0c-5.6,0-11.3,0-16.9,0c-1.6,0-3.2,0-4.8-0.1c-0.9-0.1-1.2-0.8-1.4-1.5c0,0,0-0.1,0-0.1
		c0.4-0.3,0.7-0.7,0.8-1.2c0-0.2,0-0.4,0.2-0.6c0.3-0.3,0.5-0.6,0.8-0.9l-0.1,0.1c0.7-0.4,0.5-1.3,1-1.8c0.4-1.7,1.6-3.1,2.9-4.4
		c0.6,2.6,0.6,2.6,2.7,2.7c1.3,0,2.6,0,3.9,0c295.7,0,591.3,0,887,0c1.5,0,2.9,0,4.4,0c1.4,0,2-0.8,2.2-1.9
		C198.1,2101.1,199.7,2104.2,201.3,2107.3z"/>
	<path class="st29" d="M239.8,2185.7c0.2,0.2,0.2,0.5,0.2,0.8c0.8,0.8,0,2,1,2.7l0,0c0.5,0.8,0.5,1.6,0.2,2.5
		c-0.9,1.9-2.9,2.1-4.8,2.3c-2.3,0.2-4.5,0.1-6.8,0.1c-63.9,0-127.7,0-191.6,0c-259.2,0-518.3,0-777.5,0c-2.4,0-4.9,0.2-7.2-0.2
		c-2.1-0.3-4.3-0.5-4.2-3.1c0.5-2.7,1.4-5.3,2.9-7.8c1.1,0.3,2,1.1,3.1,1.4c2.7,0.4,5.5,0.2,8.2,0.2c321.9,0,643.9,0,965.8,0
		c3.1,0,6.1-0.3,9.2,0.3C238.8,2185,239.3,2185.3,239.8,2185.7z"/>
	<path class="st30" d="M-774.2,2298.4c-0.2-1.7-0.1-3.4,0.3-5c0.6-0.3,1.2-0.4,1.8-0.4c75.6,0.1,151.2,0,226.8,0
		c2.7,0,5.5-0.3,8.2,0.4c1,0.9,2,0.8,2.9,0c2.4-0.6,4.8-0.4,7.2-0.4c261.8,0,523.6,0,785.4,0c1.6,0,3.2-0.1,4.8,0.1
		c0.3,0,0.6,0.1,1,0.1c1.2,2.5,0.8,5.2,0.7,7.8c-1.7,0.8-3.5,0.6-5.2,0.6c-341,0-682.1,0-1023.1,0c-3.5,0-7.1,0.6-10.5-0.9
		C-774.7,2300-774.7,2299.2-774.2,2298.4z"/>
	<path class="st31" d="M-772.3,2279.4c0.1-1.1,0.2-2.2,0.3-3.4c0.3-1.1,0.6-2.2,2.1-2.6c3.5-0.8,7.1-0.5,10.6-0.5
		c335.4,0,670.7,0,1006.1,0c1.8,0,3.6-0.1,5.3,0c4,0.3,7.3-0.4,9.3-3.9c0.2,0.2,0.5,0.5,0.5,0.7c0.2,3.8,1.6,7.5,1.3,11.4
		c-2.2,0.8-4.5,0.4-6.7,0.4c-145.7,0-291.5,0-437.2,0c-2.9,0-5.8-0.1-8.7,0.3c-2.4-0.4-4.8-0.4-7.2-0.4c-77.6,0-155.3,0-232.9,0
		c-2.1,0-4.2-0.1-6.3,0.3c-0.6,0.1-1.3,0.1-1.9,0c-2.9-0.6-5.8-0.3-8.7-0.3c-105.6,0-211.2,0-316.8,0c-2.9,0-5.8,0.5-8.6-0.7
		C-772.4,2280.5-772.6,2280-772.3,2279.4z"/>
	<path class="st32" d="M-758.7,2214c0-0.9,0-1.9,0.8-2.6c0.5-0.3,1.1-0.6,1.7-0.8c3.3-0.8,6.7-0.5,10.1-0.5c327.1,0,654.3,0,981.4,0
		c4.2,0,8.4,0,12.5-0.5c1.2,1.9,1.9,3.9,1.9,6.1c0.5,0.9,0.5,1.7-0.4,2.3c-2.7,1.3-5.7,0.9-8.5,0.9c-67.2,0-134.5,0-201.7,0
		c-261.9,0-523.8,0-785.7,0c-2.7,0-5.5,0.1-8.2-0.1C-758.4,2218.6-760.1,2217.3-758.7,2214z"/>
	<path class="st32" d="M247.8,2209.6c-0.2,1.1-0.8,1.9-2.2,1.9c-1.5,0-2.9,0-4.4,0c-51.4,0-102.9,0-154.3,0
		c-281.2,0-562.5,0-843.7,0c-0.6-0.4-0.3-1.2-0.8-1.7c0.1-0.3,0.1-0.7,0.2-1c0.1-0.3,0.3-0.6,0.5-0.9c-0.1-0.9,0.1-1.8,0.6-2.5
		c0-0.3,0.2-0.6,0.4-0.8c-0.1-1,0-2,0.9-2.7c0.6,3.3,0.8,3.5,4,3.6c1.3,0,2.6,0,3.9,0c328.6,0,657.2,0,985.9,0c1.6,0,3.2,0,4.8,0
		c1.4,0,1.9-0.8,2.1-1.9C247.1,2205.4,247.8,2207.4,247.8,2209.6z"/>
	<path class="st33" d="M-747.3,2482.9c2.6-0.7,5.3-1,8.1-1c323.1,0,646.2,0,969.3,0c1.3,0,2.6,0,3.9,0c1.9,0,3,0.9,3.1,2.6
		c0,0,0,0,0,0c-1,0.7-0.2,1.9-1,2.6l0,0c-0.6,0.5-0.5,1.3-0.9,1.8l0.1,0c-2.7,0.6-5.5,0.2-8.2,0.2c-320.8,0-641.7,0-962.5,0
		c-2.4,0-4.9-0.3-7.1,0.6c-0.5,0.3-1.1,0.6-1.7,0.8c-0.9-0.6-1-1.6-1-2.5c-0.4-0.6-0.3-1.3-0.8-1.9c-0.2-0.2-0.2-0.4-0.2-0.7
		c-0.4-0.6-0.2-1.4-0.8-1.9C-747.2,2483.4-747.3,2483.1-747.3,2482.9z"/>
	<path class="st34" d="M229.4,2502.8c0.1,0.2,0,0.5-0.2,0.7c-0.3,0.1-0.6,0.2-0.9,0.4c-0.3,0-0.6,0-1,0c-2.7-0.1-5.5,0-8.2,0
		c-315.4,0-630.8,0-946.1,0c-3.2,0-6.5,0-9.7,0c-0.6,0-1.3-0.1-1.9-0.2c-1-1.3-1.8-2.6-1.8-4.2c-0.4-0.8-0.4-1.7,0.1-2.5
		c1.4-1.5,3.3-1.6,5.3-1.7c2.1-0.1,4.2-0.1,6.3-0.1c316.1,0,632.2,0,948.4,0c2.4,0,4.8-0.1,7.2,0.1c2.1,0.2,4.3,0.5,4.4,3l0,0
		c-1.1,0.6-0.2,1.9-1.1,2.6l0,0C229.7,2501.4,229.8,2502.2,229.4,2502.8z"/>
	<path class="st35" d="M-714.2,2113.1c0.6,2.7,0.6,2.7,3.1,2.8c1.1,0,2.3,0,3.4,0c301.9,0,603.8,0,905.8,0c2.4,0,4.9,0.4,7.1-0.9
		c0.3-0.3,0.6-0.3,0.9,0c0.2,0.1,0.3,0.3,0.2,0.5c0.1,0.5,0.4,0.8,0.8,1.2c0.2,0.1,0.2,0.3,0.2,0.5c0.1,0.5,0.5,0.9,0.8,1.2l0,0
		c0.6,0.4,0.4,1.2,1,1.7l0,0c0.3,0.5,0.3,1-0.2,1.4c-0.9,0.8-2,1.2-3.3,1.4c-2.6,0.3-5.2,0.2-7.7,0.2c-302.4,0-604.8,0-907.1,0
		c-2.4,0-4.8,0.1-7.3-0.1c-0.6-0.1-1.3-0.3-1.8-0.5c-0.6-0.3-0.8-0.8-0.5-1.4l0,0c0.6-0.4,0.4-1.3,1-1.7l0,0c0.6-0.5,0.4-1.2,1-1.7
		l0,0c0.4-0.4,0.7-0.7,0.8-1.2c-0.1-0.2,0-0.4,0.2-0.6c0.3-0.3,0.7-0.7,0.8-1.1C-715.2,2114.1-714.9,2113.5-714.2,2113.1z"/>
	<path class="st36" d="M265.9,2315.7c-0.3-0.4-0.6-0.7-0.8-1.1c-0.3-1-1-1.4-2.1-1.4c-1.8,0-3.5,0-5.3,0c-344.3,0-688.6,0-1032.9,0
		c-0.2-2-0.2-4,0.2-6c2.3-0.8,4.8-0.4,7.2-0.4c341.4,0,682.8,0,1024.2,0c3,0,6.2,0.6,8.8-1.4c0.9,1,0.7,2.1,0.7,3.2
		C266,2310.9,265.9,2313.3,265.9,2315.7z"/>
	<path class="st37" d="M-773.2,2293.3c-0.3,0-0.5,0-0.8,0c-0.2-0.9-0.1-1.8,0.2-2.7c0.3-0.8-0.1-1.8,0.5-2.5l0,0
		c1.5-1.1,3.2-1.3,5-1.3c1.9-0.1,3.9,0,5.8,0c338.6,0,677.1,0,1015.7,0c3.6,0,7.5-0.9,10.7,1.4c0.1,1.7,0.2,3.4,0.3,5.1
		c0,0-0.2,0.1-0.2,0.1c-1.7,0.7-3.5,0.4-5.2,0.4c-342.3,0-684.5,0-1026.8,0C-769.7,2293.7-771.5,2294.1-773.2,2293.3z"/>
	<path class="st38" d="M264,2288.2c-343.3,0-686.7,0-1030,0c-2.4,0-4.8,0-7.3-0.1c0.1-1.1,0.1-2.3,0.2-3.4c0.5-1,0.6-2.2,2.1-2.6
		c2.2-0.5,4.5-0.3,6.7-0.3c106.9,0,213.8,0,320.7,0c47.4,0,94.8,0,142.2,0c185.4-0.1,370.8-0.1,556.2,0c2.8,0,5.9-0.6,8.4,1.3
		c0.6,1.1,0.9,2.3,0.6,3.5c-0.2,0.3-0.1,0.5,0.1,0.8C263.9,2287.6,263.9,2287.9,264,2288.2z"/>
	<path class="st39" d="M261.3,2269.1c-0.3,5.5,0.7,5.3-6.2,5.3c-342.1,0-684.2,0-1026.3,0c-0.6-0.6-0.5-1.2-0.1-1.9
		c0.1-2.3-0.4-4.6,1-6.8c0.2,0.1,0.4,0.3,0.6,0.4c0.3,0.3,0.7,0.7,1,1.1c0.4,0.3,0.9,0.6,1.4,0.7c2.8,0.3,5.5,0.1,8.2,0.1
		c336.9,0,673.7,0,1010.6,0C254.8,2268,258.3,2267.2,261.3,2269.1L261.3,2269.1z"/>
	<path class="st40" d="M-758.7,2214c0,0.6,0,1.1,0.1,1.7c0.1,1,0.6,1.6,1.7,1.7c0.5,0,1,0.1,1.4,0.1c1,0,1.9,0,2.9,0
		c334.1,0,668.1,0,1002.2,0c0.4,0.2,0.7,0.5,0.9,0.8c0.2,0.2,0.2,0.5,0.1,0.8c1.3,3.2-0.3,4.6-3.7,4.8c-2.1,0.2-4.2,0.1-6.3,0.1
		c-330.6,0-661.2,0-991.8,0c-3,0-6.1,0.4-9-0.9c-1-0.6-1-1.4-0.4-2.3C-760.6,2218.5-759.9,2216.2-758.7,2214z"/>
	<path class="st25" d="M-751,2190.6c0.6,1.1,1.5,1.9,3,1.9c1.6,0,3.2,0,4.8,0c254,0,508,0,762,0c7.9,0,15.7-0.1,23.6,0
		c8.1,0,16.1,0,24.2,0c7.9,0,15.8,0,23.7,0c8.1,0,16.1,0,24.2,0c7.9,0,15.8,0,23.7,0c8.1,0,16.1,0,24.2,0c7.9,0,15.8,0,23.7,0
		c8.1,0,16.1,0,24.2,0c7.9,0,15.8,0,23.7,0c1.5,0,2.9,0,4.4,0c1.2,0,2.1-0.7,2.6-1.7c0.3-0.4,0.5-0.4,0.8,0c0.2,0.2,0.2,0.5,0.2,0.8
		c0.8,0.7,0,2,1,2.7c0,0,0,0,0,0c0,0.6,0,1.1-0.1,1.7c-0.1,1-0.6,1.6-1.8,1.7c-0.6,0-1.3,0.1-1.9,0.1c-1.1,0-2.3,0-3.4,0
		c-327.2,0-654.4,0-981.6,0c-1.8,0-3.5,0-5.3-0.1c-1.2,0-1.5-0.9-1.7-1.8C-752.8,2194-752.2,2192.2-751,2190.6z"/>
	<path class="st41" d="M236.1,2176.2c1.2,1.5,1.8,3.3,2,5.1c0.5,0.9,0.5,1.7-0.4,2.3c-2.8,1.2-5.7,0.7-8.6,0.7
		c-118.2,0-236.3,0-354.5,0c-203.4,0-406.9,0-610.3,0c-2.6,0-5.2,0.2-7.7-0.1c-2.4-0.3-4.5-1-3.6-3.9c0.2-1.9,0.8-3.6,2-5.1
		c2.7,1,5.5,1.4,8.5,1.4c1.8-0.1,3.5,0,5.3,0c316.9,0,633.7,0,950.6,0C224.8,2176.5,230.5,2176.6,236.1,2176.2z"/>
	<path class="st42" d="M231.4,2498.3c-0.7-1.1-1.6-1.8-3.1-1.8c-1.3,0-2.6,0-3.9,0c-319.4,0-638.7,0-958.1,0c-2.2,0-4.5-0.3-6.6,0.9
		c-0.3,0.4-0.7,0.4-1,0l0,0c-0.5-0.5-0.3-1.2-0.8-1.7c-0.2-0.2-0.2-0.4-0.2-0.7c-0.4-0.6-0.3-1.4-0.9-1.9l0,0
		c-0.6-0.9-0.5-1.6,0.5-2.3c2.9-1.1,6-0.7,9.1-0.7c157.2,0,314.4,0,471.7,0c161.6,0,323.2,0,484.7,0c2.4,0,4.9-0.2,7.2,0.2
		c2.2,0.4,4.1,1.1,3.2,3.7C233,2495.6,232.5,2497.1,231.4,2498.3z"/>
	<path class="st43" d="M227.5,2507.1c-0.1,1.6-0.7,3-1.9,4.2c-23.9-0.9-47.7-0.3-71.6-0.3c-5.2,0-10.3-0.1-15.5-0.1
		c-287,0-574.1,0-861.1,0c-3.7,0-7.4,0.2-11.1,0.2c-0.6-0.1-1.2-0.3-1.8-0.7l0,0c-0.5-0.5-0.3-1.3-0.9-1.8c-0.2-0.2-0.2-0.4-0.2-0.6
		c-0.4-0.7-0.2-1.5-0.9-2l0,0c-0.2-0.6-0.1-1.1,0.4-1.6c1.3-1.1,2.9-1.1,4.6-1.1c1.5,0,2.9,0,4.4,0c315.7,0,631.4,0,947.1,0
		c2.8,0,5.8-0.9,8.3,1.1C227.9,2505.4,228,2506.2,227.5,2507.1z"/>
	<path class="st44" d="M-734.5,2510.3c1.2-0.5,2.3-0.9,3.7-0.9c1.3,0.1,2.6,0,3.9,0c290.1,0,580.1,0,870.2,0c5,0,9.9,0,14.9,0
		c5,0,10,0,15,0c5.2,0,10.3,0,15.5,0c5,0,10,0,15,0s10,0,15,0c1.3,0,2.6,0,3.9,0c1.5,0,2.4,0.7,3.1,1.8c0,0,0-0.1,0-0.1
		c-0.8,0.5-0.6,1.4-0.9,2c0.1,0.2,0,0.4-0.2,0.6c-0.4,0.8-1.3,1.3-2.1,1.7c-2.2,0.6-4.5,0.4-6.7,0.4c-313.7,0-627.4,0-941.1,0
		c-2.1,0-4.2,0.2-6.2-0.4c-0.6-0.2-1.2-0.5-1.7-0.8l0,0c-0.5-0.5-0.4-1.2-0.9-1.7c-0.2-0.2-0.3-0.4-0.2-0.6
		C-734.9,2511.6-735.1,2511-734.5,2510.3z"/>
	<path class="st45" d="M219.7,2523.3c-0.6-2.5-0.6-2.6-2.8-2.6c-1.3,0-2.6,0-3.9,0c-312,0-624,0-936.1,0c-1.6,0-3.2,0-4.8,0.1
		c-1.2,0-1.6,0.8-1.8,1.7c-0.9-0.6-1.1-1.4-1.1-2.3c-0.1-0.5-0.4-0.8-0.7-1.2c-0.2-0.2-0.3-0.4-0.2-0.7c-0.4-0.6-0.2-1.5-1-1.9l0,0
		c-0.3-0.6,0-1.1,0.7-1.3c1.3-0.1,2.6-0.1,3.9-0.1c315.2,0,630.4,0,945.6,0c1.3,0,2.6-0.1,3.9,0.1c1.5,0.2,1.8,1,1.2,2.2l0-0.1
		c-0.8,0.5-0.6,1.3-1,2C221.5,2520.8,220.9,2522.2,219.7,2523.3z"/>
	<path class="st46" d="M-55.9,1903.1c-0.8,1.2-1.9,1.9-3.5,1.9c-1.3,0-2.6,0-3.9,0c-127.9,0-255.7,0-383.6,0c-1.3,0-2.6,0-3.9,0
		c-1.4,0-2.4-0.6-3.1-1.7c0,0,0,0,0,0c0.6-0.4,1.4-0.3,2-0.8c0.2-0.2,0.4-0.2,0.7-0.2c0.7-0.3,1.7-0.2,2.2-0.8l0,0
		c0.6-0.4,1.4-0.3,2-0.8c0.2-0.2,0.4-0.2,0.7-0.2c0.7-0.3,1.6-0.2,2.2-0.8l0,0c0.6-0.4,1.4-0.3,2-0.7c0.2-0.2,0.5-0.2,0.7-0.2
		c0.7-0.3,1.6-0.2,2.2-0.8l0,0c0.8-0.8,2.2,0,2.9-0.9l-0.1,0c0.6-0.4,1.4-0.3,2-0.8c0.2-0.2,0.4-0.2,0.7-0.2
		c0.7-0.3,1.6-0.2,2.2-0.8c0.2-0.2,0.3-0.2,0.6-0.1c0.8-0.3,1.7-0.2,2.3-0.8l0,0c0.8-0.7,2.2,0,2.9-0.9l0,0c0.8-0.7,2.2,0,2.9-0.9
		c2.7-1.3,5.6-2.2,8.7-2.6c2.7,1.8,5.9,1.3,8.9,1.3c69.3,0,138.6,0,207.9,0c32.2,0,64.5,0.1,96.7,0c2,0,4.3,0.5,5.9-1.1
		c4,0.8,7.9,2,11.6,3.5c0.6,0.5,1.5,0.4,2.2,0.7c0.3-0.1,0.5,0,0.7,0.2c0.6,0.5,1.4,0.3,2,0.7l-0.1,0c0.7,0.9,2.1,0.2,2.9,0.9l0,0
		c0.6,0.6,1.5,0.5,2.3,0.8c0.2-0.1,0.4,0,0.6,0.1c0.6,0.5,1.5,0.4,2.2,0.8c0.3-0.1,0.6,0,0.8,0.2c0.6,0.4,1.4,0.3,1.9,0.7l0,0
		c0.6,0.6,1.5,0.5,2.2,0.8c0.3-0.1,0.5,0,0.7,0.2c0.6,0.5,1.4,0.3,2,0.7l0,0c0.6,0.6,1.5,0.5,2.2,0.8c0.3-0.1,0.5,0,0.7,0.2
		c0.6,0.5,1.4,0.3,2,0.8l0,0C-57.5,1902.9-56.7,1902.8-55.9,1903.1L-55.9,1903.1z"/>
	<path class="st47" d="M-774.1,2300.2c2.4,0,4.8,0.1,7.3,0.1c341.6,0,683.2,0,1024.8,0c2.4,0,4.9-0.4,7.1,0.8
		c0.1,1.2,0.1,2.3,0.2,3.5c-1.4,1.1-3.2,1.2-5,1.2c-2.1,0-4.2,0-6.3,0c-185.7,0-371.5,0-557.2,0c-2.9,0-5.8-0.2-8.7,0.3
		c-0.6,0.1-1.3,0.1-1.9,0c-2.9-0.6-5.8-0.3-8.7-0.3c-147.2,0-294.4,0-441.5,0c-2.9,0-5.8,0.2-8.7-0.3c-1-0.3-1.7-0.8-2-1.7
		c0-0.3,0-0.7,0.1-1c0.2-0.5,0.2-1,0.1-1.5c0-0.3,0.1-0.7,0.1-1L-774.1,2300.2z"/>
	<path class="st48" d="M-769.3,2261.5c339.8,0,679.6,0,1019.4,0c1.5,0,2.9,0,4.4,0c3.8-0.1,4.5-0.8,4.8-4.4c1.3,1.8,0.9,3.9,1,5.9
		c0.5,1.1,0.7,2.2-0.4,3.2c-2.6,1.3-5.4,0.8-8.1,0.8c-63.8,0-127.7,0-191.5,0c-273.8,0-547.5,0-821.3,0c-3.1,0-6.5,0.8-9.4-1.1
		c0,0-0.1-0.1-0.1-0.1c0.1-0.6,0.1-1.1,0.2-1.7C-769.4,2263.3-770.2,2262.1-769.3,2261.5z"/>
	<path class="st49" d="M-769.3,2403.7c0.1-0.7,0.1-1.4,0.2-2.1c0.1-0.8,0.7-1.3,1.6-1.3c0.6-0.1,1.3-0.1,1.9-0.1c1.5,0,2.9,0,4.4,0
		c338.2,0,676.3,0,1014.5,0c2.4,0,4.8,0,7.3,0.1c-0.1,0.6-0.2,1.1-0.2,1.7c-0.8,1.1,0,2.9-2,3.4c-2.7,0.8-5.4,0.4-8.2,0.4
		c-169,0-338,0-507,0c-170.1,0-340.3,0-510.4,0c-0.7,0-1.3-0.1-1.8-0.4C-769.2,2404.7-769.3,2404.2-769.3,2403.7z"/>
	<path class="st50" d="M-767.5,2413.3c-1.1-1.3-0.9-2.9-0.9-4.4c-0.5-0.9-0.5-1.7,0.4-2.3c2.6-1.3,5.4-0.8,8.1-0.8
		c162.5,0,325,0,487.5,0c173.5,0,346.9,0,520.4,0c2.1,0,4.2,0,6.3,0c3.8,0.1,5.4,1.6,4.1,5c0,1.7,0.2,3.5-1,5.1
		c-2.2-2.5-5.2-3.2-8.6-3.1c-1.9,0.1-3.9,0-5.8,0c-332.7,0-665.4,0-998,0C-759.1,2412.7-763.3,2412.7-767.5,2413.3z"/>
	<path class="st51" d="M-767.5,2413.3c0.2-1.1,0.8-1.9,2.2-1.9c1.3,0,2.6,0,3.9,0c19.7,0,39.3,0,59,0c316.8,0,633.6,0,950.3,0
		c1.5,0,2.9,0,4.4,0c4.2,0.1,4.8,0.6,5.3,4.5c-0.1,0.5-0.1,1-0.2,1.5c-0.3,0.4-0.6,0.4-0.9,0c-0.5-1-1.3-1.6-2.6-1.7
		c-1.3-0.1-2.6,0-3.9,0c-336.8,0-673.6,0-1010.3,0c-1.1,0-2.3,0-3.4,0c-2.1,0.1-2.1,0.1-2.7,2.7
		C-767.7,2416.8-767.4,2415-767.5,2413.3z"/>
	<path class="st52" d="M236.1,2176.2c-0.1,0.7-0.4,1.4-1.3,1.6c-0.5,0.1-1,0.1-1.4,0.1c-1.5,0-2.9,0-4.4,0c-322.2,0-644.4,0-966.6,0
		c-1.6,0-3.2,0-4.8,0c-2.1-0.1-2.1-0.1-2.7-2.7c0-0.3,0-0.5,0.2-0.7c0.5-0.5,0.3-1.2,0.8-1.7l0,0c0.6-0.3,1.2-0.5,1.8-0.6
		c2.9,0.3,5.8,0.2,8.7,0.2c319,0,638,0,956.9,0c3.7,0,7.4-0.2,11.1-0.7C235.3,2173.1,235.9,2174.6,236.1,2176.2z"/>
	<path class="st53" d="M-739.3,2161.5c0.2,1.7,1.1,2.6,3.1,2.7c1.1,0,2.3,0,3.4,0c319.2,0,638.3,0,957.5,0c1.3,0,2.6,0,3.9-0.1
		c1.2,0,1.6-0.8,1.8-1.7c0.9,0.6,1,1.5,1,2.4c0.4,0.6,0.3,1.4,0.9,1.9c0.2,0.2,0.2,0.4,0.1,0.6c0.4,0.6,0.3,1.1-0.3,1.5
		c-2.9,1.4-6,0.8-9,0.8c-162,0-324.1,0-486.1,0c-83.7,0-167.3,0-251,0c-72.7,0-145.4,0-218.1,0c-2.3,0-4.5,0.2-6.8-0.2
		c-2.4-0.4-3.4-1.5-2.4-3.7C-741,2164.2-740.5,2162.7-739.3,2161.5z"/>
	<path class="st54" d="M213.8,2129.7c-271.8,0-543.6,0-815.4,0c-38.4,0-76.7,0-115.1,0c-1.5,0-2.9,0-4.4-0.1c-1.2,0-1.7-0.7-1.8-1.7
		c0,0,0,0,0,0c0.6-0.5,0.4-1.3,1-1.7l0,0c0.6-0.5,0.4-1.3,1-1.7c0-0.7,0.3-1.3,1-1.7c2,1,4.2,1.5,6.5,1.4c1.8-0.1,3.5,0,5.3,0
		c302.7,0,605.4,0,908,0c3.2,0,6.5,0,9.7-0.1c1,0.1,1.8,0.4,2.3,1.3c0.6,0.5,0.4,1.3,1,1.7l0,0c0.6,0.5,0.4,1.3,1,1.7l0,0
		c0.3,0.2,0.3,0.4,0.2,0.6C214,2129.6,213.9,2129.7,213.8,2129.7z"/>
	<path class="st40" d="M-760.6,2222.7c334.9,0,669.7,0,1004.6,0c1,0,1.9,0,2.9,0c3.4-0.1,3.4-0.1,3.7-3.5c1.1,1,1,2.3,1,3.5
		c0,0.6,0,1.1-0.1,1.7c-0.1,1-0.6,1.6-1.7,1.7c-0.5,0-1,0.1-1.4,0.1c-1.3,0-2.6,0-3.9,0c-333.1,0-666.2,0-999.3,0
		c-1.6,0-3.2,0-4.8,0c-0.9,0-1.5-0.4-2-1c0.1-0.5,0.2-1,0.3-1.5C-761.3,2223.2-761,2222.9-760.6,2222.7z"/>
	<path class="st55" d="M-726.8,2135.5c0.2,1.9,1.3,2.8,3.5,2.8c1.5,0,2.9,0,4.4,0c309.8,0,619.6,0,929.4,0c1.5,0,2.9,0,4.4,0
		c1.5,0,2.4-0.7,3.1-1.8c1.1,0.9,1.5,2.2,2.1,3.3c0.5,1.1,0.2,1.7-1.1,1.7c-1.3,0-2.6,0-3.9,0c-312.9,0-625.9,0-938.8,0
		c-0.6,0-1.3,0-1.9,0c-4.3,0-4.5-0.3-2.5-3.9C-727.9,2136.9-727.3,2136.2-726.8,2135.5z"/>
	<path class="st56" d="M-380.3,1881.7c0.2-0.2,0.4-0.2,0.6-0.1c1-0.5,2.3,0,3.3-0.8c0.2-0.2,0.4-0.2,0.7-0.1c1-0.5,2.3,0,3.2-0.7
		c0.2-0.2,0.5-0.2,0.8-0.1c1.2-0.8,2.9,0.2,4.1-0.8l0,0c1.2-0.8,2.8,0.1,3.9-0.8c0.2-0.2,0.5-0.2,0.7-0.1c1.2-0.8,2.9,0.2,4.1-0.8
		c0.2-0.2,0.4-0.2,0.7-0.1c1.3-0.7,2.9,0.1,4.1-0.8c0.2-0.2,0.5-0.2,0.7-0.1c1.2-0.7,2.8,0.1,4.1-0.7c0.3-0.2,0.6-0.2,0.9-0.1
		c1.5-0.9,3.4,0.2,4.9-0.8c0.2-0.2,0.5-0.2,0.8-0.1c1.6-0.9,3.5,0.2,5-0.8c0.2-0.2,0.5-0.2,0.8-0.1c1.6-0.8,3.5,0.2,5-0.8
		c0.6,0,1.1-0.1,1.7-0.1c1.9-0.9,4.2,0.3,6.1-0.8c0.2-0.2,0.5-0.2,0.8-0.1c2.2-1,4.8,0.3,7-0.8c0.2-0.2,0.5-0.2,0.8,0
		c2.2-1,4.8,0.3,7-0.8c1.6-0.2,3.1-0.6,4.7-0.7c3.8-0.3,7.7-0.6,11.5-0.8c20.1-1.2,40.2-1.5,60.3-0.7c13.3,0.5,26.6,1.5,39.9,2.9
		c11.5,1.3,22.9,2.9,34.3,4.6c1.1,0.2,2.2,0.5,3.2,0.8c1.2,0.8,2.8,0,4,0.7c0.3-0.1,0.6-0.1,0.8,0.1c1.1,0.9,2.7-0.1,3.9,0.8l0,0
		c1.2,1,2.9,0.1,4.1,0.8c0.3-0.1,0.5-0.1,0.7,0.1c0.9,0.7,2.2,0.2,3.2,0.7c0.2-0.1,0.4-0.1,0.6,0.1c1.1,1,2.8,0,4,0.8l-0.1,0
		c1.1,1.1,2.8,0.1,4.1,0.9c0.3-0.1,0.5-0.1,0.8,0.1c0.9,0.7,2.2,0.1,3.1,0.7c0.3-0.1,0.5-0.1,0.7,0.1c0.9,0.5,1.5,1.1,0.6,2
		c-4.7,1.7-9.7,1.9-14.7,1.9c-78.3,0.1-156.7,0-235,0c-3.6,0-7.1-0.2-10.5-1.3c-2.8-1-1.5-1.9,0.3-2.6l0,0
		C-383.1,1881.7-381.4,1882.7-380.3,1881.7z"/>
	<path class="st57" d="M-313.5,2305.4c0.3,0,0.6,0,1,0c1.7-0.8,3.5-0.4,5.2-0.4c189.1,0,378.2,0,567.3,0c1.7,0,3.5-0.3,5.2,0.3
		c0,0,0,0,0,0c-0.7,2.6-0.7,2.6-2.8,2.7c-1.3,0-2.6,0-3.9,0c-342.2,0-684.3,0-1026.5,0c-2.4,0-4.9,0.4-7.1-0.8c0-0.3,0-0.6,0-0.9
		c0.4-0.9,1.2-1.3,2.2-1.2c151.3,0,302.6,0,454,0C-317,2305-315.2,2304.6-313.5,2305.4z"/>
	<path class="st49" d="M258.5,2410.7c0-0.4,0-0.9-0.1-1.3c-0.4-2.1-0.6-2.3-2.5-2.4c-1.8-0.1-3.5,0-5.3,0c-339.6,0-679.2,0-1018.8,0
		c-0.6-0.6-0.6-1.1,0-1.7c0.5-0.6,1.3-0.8,2.1-0.8c1.6,0,3.2,0,4.8,0c163,0,326.1,0,489.1,0c7.7,0,15.4-0.1,23.1,0
		c7.7,0,15.5,0,23.2,0c7.6,0,15.2,0,22.7,0c7.7,0,15.5,0,23.2,0c7.7,0,15.5,0,23.2,0c7.7,0,15.5,0,23.2,0c7.6,0,15.2,0,22.7,0
		c7.7,0,15.5,0,23.2,0s15.5,0,23.2,0s15.5,0,23.2,0s15.5,0,23.2,0c7.6,0,15.2,0,22.7,0c7.7,0,15.5,0,23.2,0s15.5,0,23.2,0
		s15.5,0,23.2,0s15.5,0,23.2,0c7.6,0,15.2,0,22.7,0c7.7,0,15.5,0,23.2,0s15.5,0,23.2,0c7.7,0,15.5,0,23.2,0c7.6,0,15.2,0,22.7,0
		c7.7,0,15.5,0,23.2,0s15.5,0,23.2,0c0.6,0.6,0.6,1.2,0.1,1.8C259.4,2407.8,259.6,2409.4,258.5,2410.7z"/>
	<path class="st58" d="M-612.5,1994.6c0.9-1.3,2.1-2.3,3.6-2.9c0.2,0.2,0.4,0.5,0.6,0.7c0.3,1.7,1.5,2.4,3.4,2.4c1.9,0,3.9,0,5.8,0
		c198.9,0,397.8,0,596.7,0c32.6,0,65.1-0.1,97.7,0c2.6,0,5.2-0.2,7.7,0.6c0.6,0.2,1.2,0.4,1.8,0.6l-0.1,0c0.2,0.4,0.6,0.7,1,0.9
		l-0.1-0.1c0.2,0.4,0.6,0.7,1.1,0.9l0-0.1c0.3,0.6,0.3,1.1,0.1,1.7c-1.3,1.4-3.1,1.4-4.8,1.5c-1.9,0.1-3.9,0.1-5.8,0.1
		c-233.8,0-467.5,0-701.3,0c-3.6,0-7.5,0.8-10.7-1.5c-0.4-0.5-0.6-1-0.3-1.6l0,0c0.3-0.3,0.6-0.6,1-0.8l0,0c0.3-0.3,0.6-0.6,0.9-0.8
		l0.1,0c0.3-0.3,0.6-0.6,0.9-0.8l0.1-0.1C-613.2,1995.1-612.9,1994.8-612.5,1994.6z"/>
	<path class="st59" d="M-384.2,1882.5c-0.4,0.4-0.7,0.9-1.2,1.5c5,0.8,9.8,1.2,14.8,1.2c76.7-0.1,153.5,0,230.2,0
		c3,0,6.1,0.2,9.1-0.7c1.5-0.4,3.2-0.1,4.8-0.2c1,0,1.9-0.1,2.6-0.9c0.7-0.5,1.4-0.5,2.1-0.1c0.3-0.1,0.6,0,0.8,0.1
		c0.8,0.7,2.1,0.1,2.9,0.8l0,0c0.9,0.8,2.2,0.2,3.2,0.8c0.3-0.1,0.5-0.1,0.7,0.1c0.8,0.7,2.1,0.1,2.9,0.8l0,0
		c0.9,0.9,2.2,0.2,3.2,0.8c0.3-0.1,0.5-0.1,0.7,0.1c0.8,0.7,2.1,0.1,2.9,0.8l0,0c0.8,0.9,2.2,0.2,3.1,0.8c0.3-0.1,0.6,0,0.8,0.1
		c0.6,0.5,1.5,0.4,2.2,0.7c0.3-0.1,0.5,0,0.7,0.1c0.6,0.5,1.5,0.4,2.2,0.7c0.3-0.1,0.5-0.1,0.7,0.1c0.2,0.7,0.8,1.4-0.3,1.8
		c-0.9,0.3-1.8,0.6-2.7,0.7c-1.1,0.1-2.3,0-3.4,0c-102.4,0-204.9,0-307.3,0c-1.9,0-3.9,0.3-5.7-0.5c-1-0.4-1-0.6-0.1-1.8
		c0.1-0.1,0.2-0.2,0.2-0.4c3.4-1.7,7.2-2.3,10.9-3.3c5.4-1.5,10.8-2.7,16.2-4.1C-386.1,1882.7-385.1,1882.6-384.2,1882.5z"/>
	<path class="st60" d="M263.3,2283c-345.2,0-690.3,0-1035.5,0c-0.5-0.8-0.7-1.6,0.6-2.1c39.3-0.1,78.6,0,117.9-0.1
		c70.2,0,140.4,0,210.7,0c1.9,0,3.9-0.4,5.7,0.4c0.3,0,0.6,0,1,0c1.5-0.8,3.2-0.4,4.7-0.4c79.1,0,158.2,0,237.3,0
		c1.6,0,3.2-0.4,4.7,0.4c1.2-0.5,2.3-0.9,3.7-0.9c1,0.1,1.9,0,2.9,0c146.5,0,293.1,0,439.6,0c2.2,0,4.5-0.3,6.6,0.8
		C263.2,2281.8,263.2,2282.4,263.3,2283z"/>
	<path class="st48" d="M260.3,2265.8c0-0.9,0.1-1.9,0.1-2.8c1.3,1.9,0.9,4.1,1,6.2c-2.1,0-4.2,0-6.3,0c-339.4,0-678.8,0-1018.2,0
		c-1.8,0-3.5,0-5.3-0.1c-1.2,0-1.7-0.7-1.8-1.7c2.3-1.5,5-0.8,7.5-0.8c147.2,0,294.5,0,441.7,0c190.8,0,381.6,0,572.3,0
		c2.4,0,4.8,0.1,7.3-0.1C259.2,2266.4,259.8,2266.1,260.3,2265.8z"/>
	<path class="st41" d="M-747.1,2180.3c0.2,1.9,1.3,2.8,3.5,2.8c1.6,0,3.2,0,4.8,0c325.6,0,651.2,0,976.8,0c0.7,1.2,0.3,1.9-1.2,2.1
		c-1.4,0.1-2.9,0.1-4.4,0.1c-324.8,0-649.5,0-974.3,0c-1.7,0-3.6,0.4-5.2-0.4c-0.9-0.4-1-1.2-1.1-2
		C-748.1,2181.9-748,2181-747.1,2180.3z"/>
	<path class="st42" d="M233.2,2494.1c-0.2-1.7-1.1-2.6-3.1-2.7c-1.6,0-3.2,0-4.8,0c-322.8,0-645.7,0-968.5,0c-0.5-0.1-0.6-0.6-1-0.8
		c0,0,0,0,0,0c0-0.3,0.1-0.6,0.1-0.9c2.3-1.5,5-0.8,7.5-0.8c161.4,0,322.8,0,484.3,0c159.5,0,319,0,478.5,0c2.6,0,5.2-0.4,7.7,0.5
		c1,0.6,0.9,1.4,0.4,2.3C234.3,2492.6,234.1,2493.4,233.2,2494.1z"/>
	<path class="st33" d="M234.2,2489.7c-326.1,0-652.2,0-978.3,0c0.1-0.8,0.4-1.4,1.3-1.6c0.5-0.1,1-0.1,1.4-0.1c1.3,0,2.6,0,3.9,0
		c321.8,0,643.5,0,965.3,0c1.1,0,2.3,0,3.4,0c1.5-0.1,2.9,0.3,4.1,1c0.1,0.3,0,0.5-0.2,0.7C234.8,2490.1,234.5,2490.1,234.2,2489.7z
		"/>
	<path class="st52" d="M234.3,2171.7c-1.1,1.4-2.8,1.9-4.6,1.9c-1.3,0-2.6,0-3.9,0c-320.6,0-641.3,0-961.9,0c-2.4,0-4.9,0.4-7.1-0.9
		c-0.2-0.6,0-1.1,0.6-1.4c3-1.1,6.1-0.6,9.1-0.6c199.2,0,398.5,0,597.7,0c120.1,0,240.2,0,360.3,0c2.6,0,5.2,0,7.7-0.1
		c0.7,0,1.3,0.1,1.8,0.4C234.3,2171.2,234.3,2171.5,234.3,2171.7z"/>
	<path class="st53" d="M-741.3,2165.8c0.6,2.5,0.6,2.6,2.8,2.6c1.4,0,2.9,0,4.4,0c66.6,0,133.2,0,199.8,0c10.3,0,20.6-0.1,30.9,0
		c10.2,0.1,20.3,0,30.5,0c10.3,0,20.6,0,31,0s20.6,0,31,0c10.2,0,20.3,0,30.5,0c10.3,0,20.6,0,31,0c10.2,0,20.3,0,30.5,0
		c10.3,0,20.6-0.1,31,0c7.9,0.1,15.7-0.1,23.6,0c7.9,0,15.8,0,23.7,0s15.8,0,23.7,0c7.9,0,15.8,0,23.7,0c7.9,0,15.8,0,23.7,0
		c7.7,0,15.5,0,23.2,0c7.9,0,15.8,0,23.7,0s15.8,0,23.7,0s15.8,0,23.7,0s15.8,0,23.7,0s15.8,0,23.7,0s15.8,0,23.7,0s15.8,0,23.7,0
		s15.8,0,23.7,0s15.8,0,23.7,0s15.8,0,23.7,0c7.7,0,15.5,0,23.2,0c7.9,0,15.8,0,23.7,0s15.8,0,23.7,0s15.8,0,23.7,0
		c7.9,0,15.8,0,23.7,0c7.9,0,15.8,0,23.7,0c0.4,0.5,0.4,1.1,0.1,1.6c-1,1-2.3,0.9-3.6,0.9c-1.8,0-3.5,0-5.3,0
		c-319.1,0-638.1,0-957.2,0c-2.7,0-5.5,0.4-8.2-0.4c-0.9-0.7-0.9-1.5-0.4-2.3C-742.3,2167.3-742.2,2166.4-741.3,2165.8z"/>
	<path class="st35" d="M210.9,2124.5c-1.2,0.5-2.3,0.9-3.7,0.9c-1.3-0.1-2.6,0-3.9,0c-305.3,0-610.5,0-915.8,0c-1.6,0-3.2,0-4.8-0.1
		c-1.7-0.1-2.6-1-2.7-2.5c0-0.7,0.3-1.3,1-1.7c0,0.3,0,0.6,0,0.8c2.2,1.4,4.7,0.8,7,0.8c67.3,0,134.6,0,201.9,0
		c2.3,0,4.5-0.1,6.7,0.1c1,0.8,2,0.7,3,0c2.7-0.3,5.5-0.1,8.2-0.1c231,0,461.9,0,692.9,0c3.1,0,6.1,0.3,9.1-0.8c0.7,0.4,1,1,1,1.7
		c0.3,0.2,0.4,0.4,0.3,0.6C211.1,2124.4,211,2124.5,210.9,2124.5z"/>
	<path class="st29" d="M-747,2184.8c326,0,652,0,977.9,0c1.8,0,3.5,0,5.3-0.1c1.2,0,1.6-0.7,1.8-1.7c0-0.6,0-1.2,0-1.8
		c0.9,0.7,1,1.6,1,2.6c0.5,0.6,0.6,1.2,0,1.8c-326.8,0-653.7,0-980.5,0c-1.3,0-2.6,0-3.9-0.1C-746,2185.5-746.5,2185.1-747,2184.8z"
		/>
	<path class="st43" d="M227.4,2505.2c-1.2-0.5-2.3-0.9-3.7-0.9c-1.3,0.1-2.6,0-3.9,0c-316.2,0-632.4,0-948.6,0
		c-2.9,0-5.8-0.1-8.6,0.9c-0.6,0-0.6-0.6-0.9-0.9c-0.2-0.2-0.3-0.4-0.3-0.7c0,0,0.3-0.2,0.3-0.2c1.7-0.7,3.5-0.4,5.2-0.4
		c318.7,0,637.4,0,956.1,0c1.7,0,3.5-0.4,5.2,0.4l0,0c0.6,0.6,0.5,1.2,0,1.7l0,0C228,2505.6,227.7,2505.6,227.4,2505.2z"/>
	<path class="st61" d="M222.6,2517.3c-0.2-0.9-0.6-1.7-1.8-1.7c-0.6,0-1.3-0.1-1.9-0.1c-1.5,0-2.9,0-4.4,0c-315.7,0-631.4,0-947.1,0
		c-0.3-0.2-0.4-0.4-0.3-0.6c0.1-0.2,0.2-0.3,0.3-0.3c318.7,0,637.3,0,956,0c0.3,0.2,0.4,0.4,0.3,0.6c-0.1,0.2-0.2,0.3-0.3,0.3
		C223.5,2516.3,223.4,2516.9,222.6,2517.3z"/>
	<path class="st35" d="M-502.2,2123.7c-70,0-140.1,0-210.1,0c-1.6,0-3.2,0-4.8-0.1c-1.2,0-1.7-0.7-1.8-1.7c0.3,0,0.6,0,0.9,0
		c1.8,0.9,3.8,0.4,5.7,0.4c304.8,0,609.7,0,914.5,0c1.8,0,3.5,0.3,5.3-0.3c0.6-0.3,1.1-0.6,1.5-1c0-0.3,0-0.6,0-0.8
		c0.7,0.4,1,1,1,1.7c-0.2,0.9-0.6,1.6-1.8,1.7c-1.6,0-3.2,0.1-4.8,0.1c-65.8,0-131.5,0-197.3,0c-169.1,0-338.2,0-507.3,0
		C-501.6,2124-501.9,2124-502.2,2123.7z"/>
	<path class="st47" d="M265.2,2305.3c-2.3,0-4.5,0-6.8,0c-190.3,0-380.7,0-571,0c0.5-0.6,1.2-0.9,2.1-0.9c1.5,0,2.9,0,4.4,0
		c190.4,0,380.9,0,571.3,0C265.3,2304.8,265.3,2305.1,265.2,2305.3z"/>
	<path class="st59" d="M-316.4,1871.3c-0.5,0.6-1.2,0.9-2,0.9c-1.7,0-3.3,0-5,0C-321.2,1871.1-318.8,1871.4-316.4,1871.3z"/>
	<path class="st59" d="M-308.7,1870.5c-0.5,0.6-1.2,0.8-2,0.8c-1.7,0-3.3,0-5,0C-313.5,1870.3-311.1,1870.5-308.7,1870.5z"/>
	<path class="st59" d="M-324.2,1872.2c-0.5,0.6-1.2,0.9-2,0.9c-1.4,0-2.7,0-4.1-0.1C-328.4,1872-326.3,1872.2-324.2,1872.2z"/>
	<path class="st60" d="M-772.2,2281.3c0,0.6,0,1.1,0,1.7c0,0.7-0.2,1.3-0.9,1.7c-0.1-1.8-0.4-3.6,0.8-5.3c0,0.3,0.1,0.7,0.1,1
		c0.3,0.2,0.4,0.4,0.3,0.6C-771.9,2281.2-772,2281.3-772.2,2281.3z"/>
	<path class="st10" d="M259.4,2406.3c0-0.6-0.1-1.2-0.1-1.8c0.1-0.9-0.1-1.9,1-2.6C260.3,2403.4,260.5,2404.9,259.4,2406.3z"/>
	<path class="st39" d="M-769.3,2261.5c-0.1,0.9,0.1,1.9-0.9,2.6c-0.1-1.5-0.3-3,0.8-4.4C-769.3,2260.2-769.3,2260.9-769.3,2261.5z"
		/>
	<path class="st59" d="M-331.9,1873.1c-1.5,1.4-3.3,0.6-5,0.8C-335.4,1872.9-333.7,1873.1-331.9,1873.1z"/>
	<path class="st59" d="M-337.7,1874c-1.4,1.4-3.3,0.7-5,0.8C-341.2,1873.8-339.5,1873.9-337.7,1874z"/>
	<path class="st59" d="M-343.5,1874.8c-1.4,1.4-3.3,0.7-4.9,0.8C-347,1874.7-345.2,1874.8-343.5,1874.8z"/>
	<path class="st46" d="M-129.5,1881.6c-1.4-0.1-3,0.5-4.1-0.9C-132.1,1880.8-130.7,1880.7-129.5,1881.6z"/>
	<path class="st46" d="M-142,1879c-1.4,0-3,0.5-4.1-0.8C-144.7,1878.2-143.2,1878.1-142,1879z"/>
	<path class="st59" d="M-363.9,1878.3c-1,1.2-2.6,0.7-3.9,0.8C-366.6,1878.2-365.2,1878.2-363.9,1878.3z"/>
	<path class="st46" d="M-146.1,1878.2c-1.3-0.1-2.8,0.4-3.9-0.8C-148.6,1877.4-147.2,1877.4-146.1,1878.2z"/>
	<path class="st50" d="M256.4,2417.3c0.3,0,0.6,0,0.9,0c0.1,1.2,0.2,2.5-0.8,3.5C256.4,2419.7,256.4,2418.5,256.4,2417.3z"/>
	<path class="st58" d="M-600.9,1985.1c0.6-1,1.5-1.6,2.6-2c0.2,0.1,0.3,0.2,0.5,0.3c0.1,0.8-0.3,1.3-0.9,1.8
		c-0.5,0.3-1.1,0.3-1.7,0.2C-600.6,1985.3-600.7,1985.2-600.9,1985.1z"/>
	<path class="st46" d="M-150.8,1877.3c-1.4-0.1-2.9,0.5-4-0.7C-153.4,1876.5-152,1876.5-150.8,1877.3z"/>
	<path class="st51" d="M-766.4,2419.1c1.4,1,0.8,2.4,0.9,3.6C-766.5,2421.6-766.4,2420.3-766.4,2419.1z"/>
	<path class="st62" d="M78.5,1975.4c1.2,0.3,2.1,0.9,2.7,1.9c-0.2,0.1-0.4,0.2-0.6,0.3c-1.4,0.1-2.2-0.5-2.5-1.7
		C78.3,1975.7,78.4,1975.6,78.5,1975.4z"/>
	<path class="st59" d="M-354.2,1876.5c-1.1,1.3-2.7,0.7-4.1,0.8C-357.1,1876.4-355.6,1876.5-354.2,1876.5z"/>
	<path class="st46" d="M-133.5,1880.8c-1.4-0.1-2.9,0.5-4-0.8C-136,1879.9-134.6,1879.9-133.5,1880.8z"/>
	<path class="st59" d="M-380.3,1881.7c-1,1.3-2.6,0.8-3.9,0.9C-383.1,1881.6-381.7,1881.7-380.3,1881.7z"/>
	<path class="st59" d="M-359,1877.4c-1.1,1.3-2.7,0.8-4.1,0.8C-361.9,1877.3-360.5,1877.3-359,1877.4z"/>
	<path class="st60" d="M-771.3,2272.5c0,0.6,0.1,1.3,0.1,1.9c-0.1,0.6-0.1,1.3-0.8,1.7C-772.2,2274.8-772.3,2273.6-771.3,2272.5z"/>
	<path class="st59" d="M-349.4,1875.7c-1.1,1.2-2.7,0.7-4.1,0.7C-352.2,1875.6-350.8,1875.6-349.4,1875.7z"/>
	<path class="st62" d="M70.6,1969.5c-1.4-0.1-2.4-0.6-2.8-1.9C69,1967.9,70,1968.6,70.6,1969.5z"/>
	<path class="st59" d="M-367.7,1879.1c-1.1,1.3-2.6,0.8-4.1,0.8C-370.6,1879-369.2,1879-367.7,1879.1z"/>
	<path class="st10" d="M-768.3,2405.3c0,0.6,0,1.1,0,1.7c0,0.6-0.1,1.2-0.1,1.8c-1-1.1-0.9-2.3-0.8-3.6
		C-768.9,2405.3-768.6,2405.3-768.3,2405.3z"/>
	<path class="st46" d="M-138,1879.9c-1.2,0.1-2.4,0.3-3.2-0.7C-140.1,1879.1-139,1879.1-138,1879.9z"/>
	<path class="st59" d="M-372.6,1880c-0.8,1-2,0.8-3.2,0.7C-374.8,1880-373.7,1879.9-372.6,1880z"/>
	<path class="st59" d="M-376.4,1880.8c-0.8,1.1-2.1,0.8-3.3,0.8C-378.8,1880.8-377.6,1880.8-376.4,1880.8z"/>
	<path class="st46" d="M-125.6,1882.5c-1.1,0-2.3,0.3-3.1-0.7C-127.6,1881.7-126.5,1881.7-125.6,1882.5z"/>
	<path class="st46" d="M-121.8,1883.4c-0.7,0-1.4,0-2.1,0.1c-0.3-0.3-0.6-0.6-1-0.8C-123.7,1882.5-122.6,1882.6-121.8,1883.4z"/>
	<path class="st46" d="M-118,1884.3c-1.1,0-2.2,0.2-2.9-0.8C-119.9,1883.4-118.8,1883.5-118,1884.3z"/>
	<path class="st46" d="M-114.9,1885.1c-1.2,0-2.4,0.3-3.2-0.8C-116.9,1884.2-115.8,1884.3-114.9,1885.1z"/>
	<path class="st46" d="M-111.2,1886c-1.1,0-2.2,0.2-2.9-0.8C-113.1,1885.1-112,1885.2-111.2,1886z"/>
	<path class="st46" d="M-108.1,1886.8c-1.2,0-2.4,0.3-3.2-0.8C-110.1,1885.9-109,1886-108.1,1886.8z"/>
	<path class="st46" d="M-104.5,1887.7c-1.1,0-2.2,0.2-2.9-0.8C-106.3,1886.8-105.3,1886.9-104.5,1887.7z"/>
	<path class="st46" d="M-101.4,1888.5c-1.1,0-2.3,0.3-3.1-0.8C-103.4,1887.7-102.3,1887.7-101.4,1888.5z"/>
	<path class="st41" d="M-743.2,2171.9c0,0.3,0,0.6,0,0.9c-0.3,0-0.7,0-1,0c0-1,0.1-1.9,1-2.6c0.1,0.1,0.3,0.2,0.4,0.4
		C-742.5,2171.1-742.7,2171.5-743.2,2171.9z"/>
	<path class="st25" d="M241,2189.1c-1.3-0.6-1-1.7-1-2.7C240.9,2187.2,241,2188.1,241,2189.1z"/>
	<path class="st22" d="M-422.9,1892.8c-0.7,1.1-1.8,0.9-2.9,0.9C-425,1892.9-424,1892.8-422.9,1892.8z"/>
	<path class="st22" d="M-425.8,1893.7c-0.7,1.1-1.8,0.9-2.9,0.9C-427.9,1893.8-426.9,1893.7-425.8,1893.7z"/>
	<path class="st25" d="M242.9,2194.3c-1.2-0.6-1-1.7-1-2.7C242.8,2192.4,242.9,2193.3,242.9,2194.3z"/>
	<path class="st40" d="M250.5,2218.4c-0.3-0.3-0.6-0.6-0.9-0.8c0-0.6,0-1.2,0.1-1.8C250.6,2216.5,250.6,2217.4,250.5,2218.4z"/>
	<path class="st6" d="M-760.6,2222.7c-0.3,0.3-0.6,0.6-0.9,0.8c-0.1-1-0.1-1.9,0.8-2.6C-760.6,2221.5-760.6,2222.1-760.6,2222.7z"/>
	<path class="st30" d="M-773.2,2288.1c0,0.9,0.3,1.8-0.5,2.5C-774,2289.7-774.1,2288.8-773.2,2288.1z"/>
	<path class="st36" d="M-774.1,2305.4c-0.3,0.3-0.5,0.6-0.8,0.8c0-0.8,0.1-1.7,0.1-2.5c0.2,0.3,0.5,0.5,0.7,0.8
		c0.3,0.2,0.5,0.4,0.3,0.6C-773.9,2305.3-774,2305.4-774.1,2305.4z"/>
	<path class="st50" d="M255.5,2422.5c0.3,0,0.5,0,0.8,0c0.2,1,0.1,1.9-0.7,2.7C255.5,2424.3,255.5,2423.4,255.5,2422.5z"/>
	<path class="st22" d="M-436.4,1897.1c-0.6,1.1-1.8,0.9-2.9,0.9C-438.6,1897.3-437.5,1897.1-436.4,1897.1z"/>
	<path class="st18" d="M-755.8,2458.7c1.2,0.7,1,1.7,0.9,2.8C-755.7,2460.7-755.8,2459.7-755.8,2458.7z"/>
	<path class="st7" d="M236.1,2487.1c0-1-0.2-2,1-2.6C237.1,2485.5,237,2486.4,236.1,2487.1z"/>
	<path class="st33" d="M-744.2,2490.6c0.3,0.3,0.7,0.6,1,0.8c0,0.6,0,1.1,0,1.7C-744.1,2492.4-744.2,2491.5-744.2,2490.6z"/>
	<path class="st42" d="M230.3,2500.9c0-1-0.2-2,1.1-2.6C231.4,2499.3,231.2,2500.2,230.3,2500.9z"/>
	<path class="st22" d="M-75.4,1896.3c-1.1,0-2.3,0.2-2.9-0.9C-77.3,1895.4-76.2,1895.5-75.4,1896.3z"/>
	<path class="st46" d="M-98.4,1889.4c-0.8,0.1-1.7,0-2.2-0.7C-99.8,1888.6-99,1888.7-98.4,1889.4z"/>
	<path class="st46" d="M-95.5,1890.2c-0.9,0.1-1.7,0.1-2.2-0.7C-96.9,1889.4-96.1,1889.6-95.5,1890.2z"/>
	<path class="st22" d="M-81,1894.5c-0.9,0.1-1.7,0-2.2-0.7C-82.4,1893.7-81.6,1893.9-81,1894.5z"/>
	<path class="st22" d="M-428.7,1894.6c-0.5,0.8-1.4,0.9-2.3,0.8C-430.4,1894.7-429.6,1894.6-428.7,1894.6z"/>
	<path class="st22" d="M-78.3,1895.4c-0.8,0-1.5-0.1-2-0.7C-79.5,1894.6-78.8,1894.8-78.3,1895.4z"/>
	<path class="st22" d="M-431.6,1895.5c-0.5,0.8-1.4,0.8-2.2,0.8C-433.2,1895.6-432.5,1895.4-431.6,1895.5z"/>
	<path class="st22" d="M-434.5,1896.4c-0.5,0.7-1.2,0.8-2,0.8C-436,1896.5-435.3,1896.3-434.5,1896.4z"/>
	<path class="st22" d="M-73.2,1897.1c-0.9,0.1-1.8,0.1-2.3-0.8C-74.6,1896.3-73.8,1896.4-73.2,1897.1z"/>
	<path class="st22" d="M-439.3,1898.1c-0.5,0.8-1.3,0.9-2.2,0.8C-441,1898.2-440.2,1898-439.3,1898.1z"/>
	<path class="st22" d="M-67.7,1898.9c-0.8,0-1.5-0.1-1.9-0.7C-68.9,1898.1-68.2,1898.3-67.7,1898.9z"/>
	<path class="st22" d="M-442.3,1899c-0.5,0.7-1.2,0.8-2,0.7C-443.7,1899.2-443.1,1899-442.3,1899z"/>
	<path class="st22" d="M-65.5,1899.7c-0.9,0.1-1.7,0-2.2-0.8C-66.9,1898.9-66.1,1899-65.5,1899.7z"/>
	<path class="st22" d="M-444.2,1899.7c-0.5,0.8-1.3,0.9-2.2,0.8C-445.8,1899.9-445,1899.7-444.2,1899.7z"/>
	<path class="st22" d="M-62.9,1900.6c-0.8,0-1.5-0.1-2-0.7C-64,1899.8-63.3,1900-62.9,1900.6z"/>
	<path class="st22" d="M-447.1,1900.7c-0.5,0.7-1.2,0.8-2,0.8C-448.6,1900.9-447.9,1900.7-447.1,1900.7z"/>
	<path class="st22" d="M-60.7,1901.4c-0.9,0.1-1.8,0-2.2-0.8C-62,1900.6-61.2,1900.8-60.7,1901.4z"/>
	<path class="st22" d="M-449,1901.5c-0.5,0.8-1.3,0.9-2.2,0.8C-450.7,1901.6-449.9,1901.4-449,1901.5z"/>
	<path class="st22" d="M-58,1902.3c-0.8,0-1.5-0.1-2-0.8C-59.2,1901.5-58.5,1901.7-58,1902.3z"/>
	<path class="st22" d="M-451.9,1902.4c-0.5,0.7-1.2,0.8-2,0.8C-453.4,1902.6-452.7,1902.4-451.9,1902.4z"/>
	<path class="st22" d="M-56,1903.1c-0.9,0.1-1.6,0-2.1-0.8C-57.2,1902.3-56.5,1902.4-56,1903.1z"/>
	<path class="st62" d="M73.8,1971.9c0.7,0.2,1.3,0.5,1.6,1.1c-0.2,0.1-0.3,0.2-0.5,0.3c-0.7,0.1-1.2-0.1-1.6-0.6
		C73.2,1972.3,73.4,1972.1,73.8,1971.9z"/>
	<path class="st55" d="M213.8,2128.9c-0.8-0.4-0.9-1-1-1.7C213.6,2127.5,213.8,2128.1,213.8,2128.9z"/>
	<path class="st52" d="M232.2,2166.7c-0.9-0.4-0.9-1.1-0.9-1.9C232,2165.3,232.2,2166,232.2,2166.7z"/>
	<path class="st62" d="M-587.3,1974.8c0.3-0.6,0.9-1,1.6-1.1c0.1,0.2,0.3,0.3,0.4,0.5c-0.2,0.7-0.7,1-1.5,0.9
		C-586.9,1974.9-587.1,1974.9-587.3,1974.8z"/>
	<path class="st35" d="M-717,2117.7c0,0.7-0.2,1.3-1,1.7C-718,2118.7-717.7,2118.1-717,2117.7z"/>
	<path class="st55" d="M213.8,2129.7c0-0.3,0-0.6,0-0.8c0.7,0.4,1,1,0.9,1.7C214.5,2130.3,214.1,2130,213.8,2129.7z"/>
	<path class="st21" d="M-495.5,1920.4c-0.4,0.7-1.1,0.9-1.9,0.9C-496.9,1920.7-496.3,1920.4-495.5,1920.4z"/>
	<path class="st21" d="M-12.5,1921.2c-0.9,0.1-1.7-0.1-2-0.9C-13.6,1920.3-12.9,1920.5-12.5,1921.2z"/>
	<path class="st21" d="M-497.4,1921.3c-0.4,0.7-1.1,0.8-1.9,0.9C-498.8,1921.6-498.2,1921.3-497.4,1921.3z"/>
	<path class="st21" d="M-10.6,1922.1c-0.9,0-1.6-0.1-2-0.9C-11.7,1921.2-11,1921.4-10.6,1922.1z"/>
	<path class="st55" d="M215.7,2132.3c-0.7-0.4-0.9-1-0.9-1.7C215.5,2131,215.7,2131.6,215.7,2132.3z"/>
	<path class="st21" d="M-8.7,1923c-0.8,0-1.6-0.1-2-0.9C-9.8,1922.1-9.1,1922.3-8.7,1923z"/>
	<path class="st21" d="M-500.4,1922.8c-0.3,0.9-1.1,1-2,0.9C-501.9,1923.1-501.2,1922.9-500.4,1922.8z"/>
	<path class="st21" d="M-6.8,1923.9c-0.8,0-1.6-0.2-1.9-0.9C-7.9,1923-7.2,1923.2-6.8,1923.9z"/>
	<path class="st21" d="M-502.3,1923.7c-0.3,0.9-1.1,1-2,0.9C-503.8,1924-503.1,1923.8-502.3,1923.7z"/>
	<path class="st62" d="M-571,1963.2c-0.2,0.8-0.9,1.1-1.8,1.2C-572.4,1963.7-571.8,1963.4-571,1963.2z"/>
	<path class="st35" d="M-718,2119.4c0,0.7-0.2,1.3-1,1.7C-719,2120.4-718.7,2119.8-718,2119.4z"/>
	<path class="st52" d="M232.2,2169.3c0-0.3,0-0.6,0-0.9c0-0.4,0.1-0.8,0.1-1.2c0.7,0.5,0.9,1.2,0.9,2c-0.2,0.1-0.3,0.2-0.5,0.3
		C232.6,2169.5,232.4,2169.4,232.2,2169.3z"/>
	<path class="st62" d="M-575.9,1966.8c-0.2,0.8-1,1-1.8,1.1C-577.3,1967.2-576.7,1966.8-575.9,1966.8z"/>
	<path class="st55" d="M217.8,2136.6c-0.9-0.3-1.1-1-1-1.8C217.6,2135.2,217.8,2135.8,217.8,2136.6z"/>
	<path class="st58" d="M-593.1,1979.1c0.3-0.6,0.9-1,1.6-1.1c0.2,0.1,0.3,0.2,0.5,0.3c0.1,0.4-0.1,0.7-0.4,1
		c-0.4,0.1-0.8,0.2-1.2,0.1C-592.8,1979.3-592.9,1979.2-593.1,1979.1z"/>
	<path class="st41" d="M-742.3,2168.3c0,0.6,0.1,1.3,0.1,1.9c-0.3,0.3-0.6,0.3-0.9,0.1l-0.1-0.1
		C-743.2,2169.4-743,2168.7-742.3,2168.3z"/>
	<path class="st62" d="M-579.7,1969.4c-0.3,0.3-0.6,0.7-0.9,1c-0.1,0.1-0.3,0.2-0.4,0.3c-0.2-0.1-0.3-0.2-0.5-0.2
		C-581.1,1969.9-580.5,1969.5-579.7,1969.4z"/>
	<path class="st52" d="M234.1,2171c-0.3,0-0.6,0-0.9,0c-0.6-0.5-0.5-1.1-0.1-1.7c0,0,0.1-0.1,0.1-0.1
		C233.9,2169.7,234.1,2170.3,234.1,2171z"/>
	<path class="st55" d="M210.9,2124.5c0-0.3,0-0.6,0-0.9c0.7,0.4,1,1,1,1.7C211.6,2125.1,211.2,2124.8,210.9,2124.5z"/>
	<path class="st24" d="M-720.9,2124.5c0,0.7-0.2,1.4-1,1.7C-721.9,2125.5-721.6,2124.9-720.9,2124.5z"/>
	<path class="st41" d="M-744.2,2172.7c0,0.7-0.1,1.3-0.8,1.7C-745.1,2173.7-744.9,2173.1-744.2,2172.7z"/>
	<path class="st22" d="M-70.4,1898c-0.9,0.1-1.7,0-2.2-0.8C-71.7,1897.2-71,1897.4-70.4,1898z"/>
	<path class="st55" d="M212.9,2127.1c-0.8-0.4-0.9-1-1-1.7C212.6,2125.8,212.9,2126.4,212.9,2127.1z"/>
	<path class="st24" d="M-721.9,2126.3c0,0.7-0.2,1.3-1,1.7C-722.8,2127.3-722.6,2126.7-721.9,2126.3z"/>
	<path class="st25" d="M239,2185.7c0-0.6,0-1.2,0-1.8c0.7,0.5,0.9,1.1,0.8,1.8C239.6,2185.7,239.3,2185.7,239,2185.7z"/>
	<path class="st25" d="M241.8,2190.8c-0.3,0-0.5,0-0.8,0c0-0.6,0-1.2,0-1.8C241.7,2189.5,241.8,2190.1,241.8,2190.8z"/>
	<path class="st8" d="M171.4,2065.1c-0.9-0.3-1.1-0.9-1.1-1.6C171,2063.8,171.3,2064.4,171.4,2065.1z"/>
	<path class="st32" d="M-757.5,2209.8c0.7,0.4,0.8,1,0.8,1.7c-0.4,0-0.8-0.1-1.2-0.1C-757.8,2210.9-757.7,2210.4-757.5,2209.8z"/>
	<path class="st2" d="M183,2080.6c-1-0.3-1.1-1-1.1-1.7C182.7,2079.2,183,2079.8,183,2080.6z"/>
	<path class="st35" d="M209,2120.2c-0.8-0.4-0.9-1-1-1.7C208.7,2118.9,209,2119.5,209,2120.2z"/>
	<path class="st36" d="M-774.1,2300.2c0,0-0.4,0.1-0.4,0.1c-0.4-0.7-0.2-1.3,0.4-1.9C-774.2,2299-774.2,2299.6-774.1,2300.2z"/>
	<path class="st36" d="M-774.7,2301.2c0.6,0.5,0.5,1-0.1,1.5C-774.7,2302.2-774.7,2301.7-774.7,2301.2z"/>
	<path class="st2" d="M-692.8,2080.7c-0.1,0.7-0.3,1.3-1.1,1.6C-693.9,2081.6-693.6,2081-692.8,2080.7z"/>
	<path class="st55" d="M216.9,2134.8c-1-0.4-1.1-1.2-1-2C216.6,2133.4,216.9,2134,216.9,2134.8z"/>
	<path class="st7" d="M-747,2483.7c0.8,0.4,0.9,1.2,0.8,1.9C-746.8,2485.1-747,2484.4-747,2483.7z"/>
	<path class="st7" d="M-746,2486.2c0.8,0.4,0.9,1.1,0.8,1.9C-745.8,2487.6-746.1,2487-746,2486.2z"/>
	<path class="st7" d="M235.2,2488.9c-0.1-0.8,0.1-1.4,0.9-1.8C236.1,2487.8,236,2488.5,235.2,2488.9z"/>
	<path class="st7" d="M234.2,2489.7c0.3,0,0.6,0,0.9,0c0,0.8-0.1,1.4-0.9,1.9C234.2,2491,234.2,2490.3,234.2,2489.7z"/>
	<path class="st33" d="M-743.2,2493.1c0.9,0.4,1,1.2,0.9,1.9C-743,2494.6-743.2,2493.9-743.2,2493.1z"/>
	<path class="st33" d="M-742.1,2495.7c0.7,0.4,0.9,1,0.8,1.7C-742,2497-742.2,2496.4-742.1,2495.7z"/>
	<path class="st33" d="M-741.3,2497.4c0.3,0,0.7,0,1,0c0,0.7-0.1,1.3-0.1,2C-741.1,2498.9-741.3,2498.2-741.3,2497.4z"/>
	<path class="st26" d="M-707.4,2102.1c0,0.8-0.1,1.4-1,1.8C-708.4,2103.1-708.1,2102.5-707.4,2102.1z"/>
	<path class="st42" d="M229.4,2502.8c-0.1-0.8,0-1.5,0.9-1.9C230.3,2501.6,230.1,2502.3,229.4,2502.8z"/>
	<path class="st63" d="M85.4,1980.5c0.7,0.2,1.3,0.5,1.6,1.1c-0.2,0.1-0.3,0.2-0.5,0.3c-0.4,0.1-0.8,0-1.2-0.1
		c-0.3-0.3-0.4-0.6-0.4-1C85,1980.8,85.2,1980.6,85.4,1980.5z"/>
	<path class="st42" d="M228.4,2505.2c0-0.6,0-1.2,0-1.7c0.3,0,0.6,0,0.9,0C229.3,2504.2,229.1,2504.8,228.4,2505.2z"/>
	<path class="st64" d="M-738.3,2504.3c0.3,0.3,0.6,0.6,0.9,0.9c0,0.3,0,0.6-0.1,0.9C-738.1,2505.7-738.3,2505-738.3,2504.3z"/>
	<path class="st42" d="M227.4,2505.2c0.3,0,0.7,0,1,0c0,0.8-0.2,1.4-0.9,1.9C227.4,2506.5,227.4,2505.8,227.4,2505.2z"/>
	<path class="st64" d="M-737.4,2506c1,0.4,1,1.2,0.9,2C-737.2,2507.5-737.4,2506.8-737.4,2506z"/>
	<path class="st64" d="M-736.3,2508.6c0.8,0.4,0.9,1,0.9,1.8C-736.2,2510-736.4,2509.3-736.3,2508.6z"/>
	<path class="st64" d="M-734.5,2510.3c0,0.7-0.1,1.3-0.1,2c-0.7-0.5-0.9-1.2-0.9-1.9C-735.1,2510.4-734.8,2510.3-734.5,2510.3z"/>
	<path class="st43" d="M224.6,2513.2c-0.1-0.8,0-1.6,0.9-2C225.6,2512,225.3,2512.7,224.6,2513.2z"/>
	<path class="st64" d="M-734.4,2512.9c0.7,0.4,0.9,1,0.9,1.7C-734.2,2514.2-734.4,2513.7-734.4,2512.9z"/>
	<path class="st43" d="M223.5,2515.6c0-0.3,0-0.6-0.1-0.9c0.3-0.3,0.6-0.6,1-0.9C224.5,2514.5,224.2,2515.1,223.5,2515.6z"/>
	<path class="st64" d="M-732.5,2514.6c0,0.3,0,0.6,0,0.9c0,0.3-0.1,0.6-0.1,0.9c-0.7-0.4-0.9-1.1-0.9-1.8
		C-733.2,2514.6-732.9,2514.6-732.5,2514.6z"/>
	<path class="st64" d="M-732.6,2516.4c1,0.4,1,1.1,1,1.9C-732.4,2517.8-732.6,2517.2-732.6,2516.4z"/>
	<path class="st61" d="M221.7,2519.2c-0.1-0.8,0-1.6,1-2C222.7,2518,222.4,2518.7,221.7,2519.2z"/>
	<path class="st35" d="M206,2115.1c-0.3,0-0.6,0-0.9,0c0-0.4,0.1-0.7,0.1-1.1C205.7,2114.2,206,2114.6,206,2115.1z"/>
	<path class="st35" d="M-715.2,2114.8c0,0.5-0.3,0.9-0.8,1.1C-715.7,2115.5-715.5,2115.2-715.2,2114.8z"/>
	<path class="st20" d="M-625.2,2005.7c0.1-0.5,0.5-0.7,1-0.9c0.1,0.1,0.2,0.2,0.3,0.3c0,0.3-0.1,0.6-0.4,0.8c-0.2,0-0.3,0-0.5,0
		C-624.9,2005.9-625,2005.8-625.2,2005.7z"/>
	<path class="st35" d="M207,2116.8c-0.5-0.3-0.8-0.6-0.8-1.2C206.5,2116,206.7,2116.4,207,2116.8z"/>
	<path class="st35" d="M-716.2,2116.5c0,0.5-0.3,0.9-0.8,1.2C-716.7,2117.3-716.4,2116.9-716.2,2116.5z"/>
	<path class="st35" d="M208,2118.5c-0.5-0.3-0.8-0.7-0.8-1.2C207.4,2117.7,207.7,2118.1,208,2118.5z"/>
	<path class="st20" d="M116.4,2006.3c0.3,0.3,0.6,0.6,1,0.9c-0.1,0.1-0.2,0.3-0.4,0.4c-0.4,0-0.8-0.2-1-0.5
		C115.8,2006.8,116,2006.5,116.4,2006.3z"/>
	<path class="st13" d="M-646.5,2026.1c-0.1,0.5-0.4,0.9-1,1.1C-647.4,2026.7-647,2026.3-646.5,2026.1z"/>
	<path class="st13" d="M137.3,2026.4c-0.3-0.3-0.6-0.6-0.9-0.9C136.9,2025.6,137.3,2025.9,137.3,2026.4z"/>
	<path class="st13" d="M136.4,2025.5c-0.3-0.3-0.6-0.6-1-0.9C136,2024.7,136.3,2025,136.4,2025.5z"/>
	<path class="st13" d="M135.5,2024.6c-0.3-0.3-0.7-0.6-1-0.9C135.1,2023.8,135.4,2024.1,135.5,2024.6z"/>
	<path class="st65" d="M113.5,2003.7c0.3,0.3,0.6,0.6,1,0.9c-0.1,0.1-0.2,0.3-0.4,0.4c-0.4,0-0.8-0.1-1-0.5
		C112.9,2004.2,113.1,2003.9,113.5,2003.7z"/>
	<path class="st58" d="M-602.9,1986.8c0.2-0.4,0.5-0.7,1-0.8c0.1,0.1,0.1,0.3,0.2,0.4c-0.1,0.3-0.4,0.5-0.7,0.6
		C-602.6,1986.9-602.7,1986.8-602.9,1986.8z"/>
	<path class="st13" d="M134.6,2023.8c-0.6-0.2-0.9-0.5-1-1.1C134.1,2022.9,134.5,2023.2,134.6,2023.8z"/>
	<path class="st20" d="M-624.2,2004.8c0.1-0.4,0.5-0.7,1-0.9c0.1,0.1,0.2,0.2,0.3,0.3c0,0.3-0.1,0.6-0.3,0.8
		c-0.3,0.1-0.6,0.1-0.9-0.2L-624.2,2004.8z"/>
	<path class="st20" d="M-627.1,2007.4c0.1-0.5,0.4-0.8,1-0.9c0.1,0.1,0.1,0.3,0.2,0.4c-0.1,0.3-0.4,0.5-0.7,0.6
		C-626.8,2007.5-626.9,2007.5-627.1,2007.4z"/>
	<path class="st20" d="M123,2012.5c0.3,0.3,0.6,0.6,1,0.9c0,0-0.2,0.1-0.2,0.1c-0.5,0.1-0.8-0.1-1-0.5
		C122.8,2012.8,122.9,2012.6,123,2012.5z"/>
	<path class="st20" d="M122.1,2011.6c0.5,0.1,0.8,0.4,1,0.9c0,0-0.2,0.2-0.2,0.2c-0.5,0.1-0.9-0.1-1.1-0.5
		C121.9,2012,122,2011.8,122.1,2011.6z"/>
	<path class="st8" d="M169.4,2062.5c-0.6-0.2-0.9-0.6-0.9-1.2C168.8,2061.7,169.1,2062.1,169.4,2062.5z"/>
	<path class="st20" d="M-632.8,2012.6c0.1-0.5,0.4-0.7,0.9-0.9c0,0.2,0.1,0.3,0.1,0.5C-632,2012.6-632.3,2012.7-632.8,2012.6
		L-632.8,2012.6z"/>
	<path class="st20" d="M121.1,2010.7c0.3,0.3,0.6,0.6,0.9,0.9c0,0-0.2,0.2-0.2,0.2c-0.5,0.1-0.9-0.1-1.1-0.5
		C120.9,2011.1,121,2010.9,121.1,2010.7z"/>
	<path class="st20" d="M-631.8,2011.8c0.3-0.3,0.6-0.6,1-0.9c0,0.2,0.1,0.4,0.1,0.5C-631.1,2011.8-631.4,2011.9-631.8,2011.8
		L-631.8,2011.8z"/>
	<path class="st20" d="M120.2,2009.8c0.3,0.3,0.6,0.6,0.9,0.9c0,0-0.2,0.2-0.2,0.2c-0.5,0.1-0.9-0.1-1.1-0.5
		C119.9,2010.2,120.1,2010,120.2,2009.8z"/>
	<path class="st20" d="M-630.9,2010.9c0.1-0.5,0.4-0.7,1-0.9c0,0.2,0.1,0.4,0.1,0.5C-630.1,2010.9-630.4,2011-630.9,2010.9
		L-630.9,2010.9z"/>
	<path class="st65" d="M112.5,2002.9c0.3,0.3,0.6,0.6,1,0.9c0,0-0.3,0.3-0.3,0.3c-0.4,0.1-0.8,0.1-1.1-0.2
		C112,2003.4,112.1,2003.1,112.5,2002.9z"/>
	<path class="st21" d="M-23.8,1916c-0.6,0-1-0.2-1.3-0.7C-24.6,1915.4-24.1,1915.6-23.8,1916z"/>
	<path class="st8" d="M170.2,2063.4c-0.3-0.3-0.6-0.6-0.9-0.9C169.9,2062.6,170.1,2062.9,170.2,2063.4z"/>
	<path class="st21" d="M-21.9,1916.9c-0.6,0-1-0.2-1.3-0.7C-22.6,1916.2-22.2,1916.5-21.9,1916.9z"/>
	<path class="st20" d="M119.2,2008.9c0.3,0.3,0.6,0.6,0.9,0.9c0,0-0.2,0.2-0.2,0.2c-0.5,0.1-0.9-0.1-1.1-0.6
		C119,2009.3,119.1,2009.1,119.2,2008.9z"/>
	<path class="st21" d="M-20,1917.8c-0.6,0-1-0.2-1.3-0.7C-20.7,1917.1-20.3,1917.3-20,1917.8z"/>
	<path class="st20" d="M-629.9,2010c0.1-0.5,0.4-0.8,1-0.9c0,0.2,0.1,0.4,0.1,0.5C-629.1,2010-629.5,2010.1-629.9,2010L-629.9,2010z
		"/>
	<path class="st20" d="M-623.2,2003.9c0.1-0.5,0.4-0.8,1-0.9c0.1,0.2,0.1,0.4,0.2,0.5c-0.2,0.3-0.6,0.5-1,0.4L-623.2,2003.9z"/>
	<path class="st32" d="M-755.8,2204.6c-0.1,0.3-0.3,0.5-0.4,0.8C-756.3,2205-756.1,2204.8-755.8,2204.6z"/>
	<path class="st32" d="M-756.8,2207.9c-0.2,0.3-0.3,0.6-0.5,0.9C-757.4,2208.4-757.2,2208.1-756.8,2207.9z"/>
	<path class="st21" d="M-18,1918.6c-0.6,0-1-0.2-1.3-0.7C-18.8,1918-18.3,1918.2-18,1918.6z"/>
	<path class="st65" d="M111.5,2002c0.3,0.3,0.6,0.6,1,0.9c0,0-0.3,0.3-0.3,0.3c-0.3,0.2-0.7,0.3-1,0.1c-0.2-0.3-0.3-0.6-0.2-1
		C111.2,2002.2,111.4,2002.1,111.5,2002z"/>
	<path class="st20" d="M-622.2,2003.1c0.1-0.5,0.4-0.7,1-0.9c0.1,0.1,0.2,0.2,0.3,0.3c0,0.3-0.1,0.6-0.3,0.8
		c-0.3,0.1-0.6,0.1-0.9-0.2L-622.2,2003.1z"/>
	<path class="st8" d="M172.2,2066c-0.3-0.3-0.6-0.6-0.9-1C171.9,2065.2,172.1,2065.5,172.2,2066z"/>
	<path class="st20" d="M118.3,2008.1c0.3,0.3,0.6,0.6,0.9,0.9c0,0-0.3,0.2-0.3,0.2c-0.4,0.1-0.8,0.1-1.1-0.2
		C117.8,2008.6,117.9,2008.3,118.3,2008.1z"/>
	<path class="st20" d="M115.4,2005.5c0.3,0.3,0.6,0.6,1,0.9c0,0-0.3,0.3-0.3,0.3c-0.3,0.2-0.7,0.3-1,0.1c-0.2-0.3-0.3-0.6-0.2-1
		C115.1,2005.6,115.2,2005.5,115.4,2005.5z"/>
	<path class="st65" d="M110.6,2001.2c0.3,0.3,0.6,0.6,1,0.9c0,0-0.3,0.3-0.3,0.3c-0.4,0.1-0.8,0-1.1-0.2
		C110,2001.6,110.2,2001.4,110.6,2001.2z"/>
	<path class="st20" d="M-621.3,2002.2c0.1-0.5,0.4-0.8,1-0.9c0.1,0.2,0.1,0.4,0.2,0.5c-0.2,0.3-0.6,0.5-1,0.4L-621.3,2002.2z"/>
	<path class="st20" d="M-629,2009.1c0.1-0.5,0.4-0.8,1-0.9c0,0.2,0.1,0.4,0.1,0.5C-628.1,2009.2-628.5,2009.3-629,2009.1
		L-629,2009.1z"/>
	<path class="st20" d="M117.3,2007.2c0.3,0.3,0.6,0.6,1,0.9c0,0-0.3,0.2-0.3,0.2c-0.8,0.1-1.1-0.1-1-0.9L117.3,2007.2z"/>
	<path class="st20" d="M-628,2008.3c0.1-0.5,0.4-0.8,1-0.9c0,0,0.1,0.1,0.1,0.1C-626.9,2008.2-627.2,2008.5-628,2008.3L-628,2008.3z
		"/>
	<path class="st65" d="M109.6,2000.3c0.3,0.3,0.7,0.6,1,0.9c0,0-0.3,0.3-0.3,0.3c-0.4,0.1-0.8,0.1-1.1-0.2
		C109.1,2000.8,109.2,2000.5,109.6,2000.3z"/>
	<path class="st65" d="M100.7,1992.7c0.5,0.1,0.9,0.4,1,0.8c-0.2,0.1-0.3,0.2-0.5,0.2c-0.4-0.1-0.6-0.3-0.7-0.6
		C100.5,1993,100.6,1992.9,100.7,1992.7z"/>
	<path class="st65" d="M99.7,1991.9c0.5,0.1,0.9,0.4,1,0.8c0,0-0.1,0.1-0.1,0.1c-0.5,0.1-0.8,0-1.1-0.4
		C99.6,1992.3,99.6,1992.1,99.7,1991.9z"/>
	<path class="st20" d="M-620.3,2001.4c0.1-0.5,0.4-0.8,1-0.9c0.1,0.2,0.1,0.4,0.2,0.5C-619.4,2001.4-619.8,2001.5-620.3,2001.4
		L-620.3,2001.4z"/>
	<path class="st65" d="M98.7,1991.1c0.5,0.1,0.9,0.4,1,0.8c0,0-0.1,0.1-0.1,0.1c-0.4,0.1-0.8,0-1-0.4
		C98.6,1991.4,98.7,1991.2,98.7,1991.1z"/>
	<path class="st58" d="M-608.9,1991.7c0.3-0.3,0.7-0.5,1-0.8c0.1,0.2,0.2,0.4,0.4,0.5c-0.2,0.4-0.6,0.6-1.1,0.5L-608.9,1991.7z"/>
	<path class="st65" d="M97.7,1990.2c0.5,0.1,0.8,0.4,1,0.8l0,0c-0.4,0.1-0.8,0-1-0.3C97.6,1990.6,97.7,1990.4,97.7,1990.2z"/>
	<path class="st58" d="M-607.9,1990.9c0.3-0.3,0.7-0.6,1-0.8c0.1,0.2,0.2,0.4,0.3,0.5c-0.2,0.4-0.6,0.6-1.1,0.5L-607.9,1990.9z"/>
	<path class="st65" d="M96.7,1989.4c0.5,0.1,0.8,0.4,1,0.8c0,0,0,0,0,0c-0.4,0.1-0.8,0-1-0.3C96.7,1989.7,96.7,1989.6,96.7,1989.4z"
		/>
	<path class="st65" d="M108.6,1999.5c0.3,0.3,0.7,0.6,1,0.9c0,0-0.3,0.2-0.3,0.2c-0.4,0.1-0.8,0.1-1.1-0.2
		C108.1,2000,108.2,1999.7,108.6,1999.5z"/>
	<path class="st37" d="M263.9,2287.3c-0.1-0.2-0.2-0.3-0.3-0.5c0-0.1,0.1-0.2,0.2-0.2C264,2286.7,264,2287,263.9,2287.3z"/>
	<path class="st21" d="M-16.1,1919.5c-0.6,0-1-0.2-1.3-0.7C-16.8,1918.8-16.4,1919.1-16.1,1919.5z"/>
	<path class="st20" d="M-619.3,2000.5c0.1-0.5,0.4-0.8,1-0.9c0.1,0.2,0.1,0.4,0.2,0.5C-618.5,2000.5-618.8,2000.7-619.3,2000.5
		L-619.3,2000.5z"/>
	<path class="st21" d="M-14.4,1920.4c-0.4-0.2-0.7-0.5-1.1-0.7C-14.9,1919.7-14.5,1919.9-14.4,1920.4z"/>
	<path class="st65" d="M107.6,1998.6c0.3,0.3,0.7,0.6,1,0.9c0,0-0.3,0.2-0.3,0.2c-0.6,0.1-0.9-0.1-1.2-0.6
		C107.3,1999,107.5,1998.8,107.6,1998.6z"/>
	<path class="st21" d="M-499.3,1922.2c-0.4,0.2-0.8,0.5-1.1,0.7C-500.3,1922.4-499.9,1922.2-499.3,1922.2z"/>
	<path class="st65" d="M95.7,1988.6c0.3,0.3,0.7,0.6,1,0.8c0,0,0,0,0,0c-0.4,0.1-0.8,0-1-0.3C95.7,1988.9,95.7,1988.7,95.7,1988.6z"
		/>
	<path class="st62" d="M-572.8,1964.5c-0.3,0.3-0.7,0.5-1,0.8C-573.7,1964.8-573.4,1964.5-572.8,1964.5z"/>
	<path class="st2" d="M-691.9,2079.6c-0.3,0.4-0.6,0.7-0.8,1.1C-692.7,2080.1-692.4,2079.8-691.9,2079.6z"/>
	<path class="st58" d="M-605.9,1989.2c0.2-0.4,0.5-0.7,1-0.8c0.1,0.2,0.2,0.3,0.3,0.5c-0.1,0.3-0.4,0.5-0.8,0.6
		C-605.6,1989.4-605.7,1989.3-605.9,1989.2z"/>
	<path class="st65" d="M94.8,1987.9c0.3,0.2,0.6,0.5,0.9,0.7c0,0,0,0,0,0l-0.4,0.2c0,0-0.4-0.2-0.4-0.2
		C94.6,1988.4,94.6,1988.1,94.8,1987.9z"/>
	<path class="st63" d="M94.8,1987.9c0,0.2,0,0.4,0,0.6c-0.2,0.1-0.3,0.1-0.5,0.2c-0.4-0.1-0.6-0.3-0.8-0.6c0-0.4,0.1-0.6,0.5-0.7
		C94.4,1987.4,94.7,1987.6,94.8,1987.9z"/>
	<path class="st58" d="M-604.9,1988.4c0.1-0.5,0.5-0.7,1-0.8c0.1,0.2,0.1,0.4,0.2,0.6c-0.3,0.3-0.6,0.5-1.1,0.4L-604.9,1988.4z"/>
	<path class="st20" d="M-618.4,1999.7c0.1-0.5,0.5-0.7,1-0.8c0.1,0.2,0.1,0.4,0.2,0.5C-617.5,1999.7-617.8,1999.8-618.4,1999.7
		L-618.4,1999.7z"/>
	<path class="st65" d="M106.4,1998.8c0-0.3,0.1-0.7,0.1-1c0.4,0.3,0.7,0.5,1.1,0.8c0,0-0.3,0.2-0.3,0.2
		C107,1999.2,106.7,1999.2,106.4,1998.8z"/>
	<path class="st20" d="M-616.4,1998c0,0.3,0,0.6,0,0.8c-0.3,0.3-0.6,0.3-0.9,0.1c0,0-0.1-0.1-0.1-0.1
		C-617.2,1998.3-616.9,1998.1-616.4,1998z"/>
	<path class="st65" d="M106.6,1997.9c-0.6-0.1-0.9-0.4-1.1-0.9C106.1,1997.1,106.5,1997.4,106.6,1997.9z"/>
	<path class="st20" d="M-615.4,1997.1c-0.3,0.3-0.6,0.5-1,0.8C-616.3,1997.5-615.9,1997.2-615.4,1997.1z"/>
	<path class="st65" d="M105.6,1997c-0.5-0.1-0.9-0.4-1-0.9C105.1,1996.2,105.5,1996.5,105.6,1997z"/>
	<path class="st63" d="M93.1,1986.6c0.3,0.3,0.7,0.5,1,0.8c0,0-0.3,0.3-0.3,0.3c-0.5,0.1-0.9-0.1-1.1-0.5
		C92.8,1986.9,93,1986.8,93.1,1986.6z"/>
	<path class="st58" d="M-603.9,1987.6c0.1-0.5,0.5-0.7,1-0.8c0,0,0,0,0,0C-602.7,1987.5-603,1987.8-603.9,1987.6L-603.9,1987.6z"/>
	<path class="st63" d="M92.1,1985.8c0.3,0.3,0.7,0.5,1,0.8c0,0-0.2,0.2-0.2,0.2c-0.5,0.1-0.9-0.1-1.1-0.5
		C91.9,1986.1,92,1986,92.1,1985.8z"/>
	<path class="st63" d="M91,1985c0.5,0.1,0.9,0.4,1,0.8c0,0-0.2,0.2-0.2,0.2c-0.5,0.1-0.8-0.1-1.1-0.4C90.9,1985.3,91,1985.1,91,1985
		z"/>
	<path class="st58" d="M-601.9,1985.9c0.3-0.3,0.7-0.6,1-0.8c0,0,0,0,0,0C-600.7,1985.8-601.1,1986.1-601.9,1985.9L-601.9,1985.9z"
		/>
	<path class="st58" d="M-606.9,1990.1c0.3-0.3,0.7-0.5,1-0.8c0,0,0.2,0.1,0.2,0.1c0.3,0.3,0.3,0.6,0.1,0.9c-0.4,0.2-0.7,0.2-1-0.1
		L-606.9,1990.1z"/>
	<path class="st63" d="M90,1984.1c0.5,0.1,0.9,0.4,1,0.8c0,0-0.1,0.1-0.1,0.1c-0.5,0.1-0.8,0-1.1-0.4
		C89.9,1984.5,90,1984.3,90,1984.1z"/>
	<path class="st63" d="M89,1983.3c0.5,0.1,0.9,0.4,1,0.8c0,0-0.1,0.1-0.1,0.1c-0.3,0.2-0.7,0.2-1,0c-0.1-0.2-0.1-0.3-0.2-0.5
		C88.8,1983.6,88.9,1983.5,89,1983.3z"/>
	<path class="st63" d="M88,1982.5c0.5,0.1,0.9,0.4,1,0.8l-0.1,0c-0.4,0.1-0.8,0-1-0.3C88,1982.8,88,1982.7,88,1982.5z"/>
	<path class="st20" d="M-614.5,1996.3c-0.3,0.3-0.6,0.5-0.9,0.8C-615.3,1996.7-615,1996.4-614.5,1996.3z"/>
	<path class="st62" d="M-573.8,1965.2c-0.4,0.3-0.7,0.6-1.1,0.8C-574.8,1965.6-574.4,1965.3-573.8,1965.2z"/>
	<path class="st62" d="M-574.9,1966c-0.2,0.5-0.5,0.8-1.1,0.9C-575.8,1966.3-575.4,1966.1-574.9,1966z"/>
	<path class="st20" d="M-613.5,1995.5c-0.3,0.3-0.6,0.5-0.9,0.8C-614.3,1995.8-614,1995.5-613.5,1995.5z"/>
	<path class="st2" d="M183.9,2081.5c-0.3-0.3-0.6-0.7-0.9-1C183.5,2080.6,183.8,2081,183.9,2081.5z"/>
	<path class="st65" d="M102.7,1994.4c0.3,0.3,0.7,0.6,1,0.8c-0.2,0.1-0.3,0.3-0.5,0.4c-0.4-0.1-0.7-0.3-0.9-0.7
		C102.5,1994.7,102.6,1994.6,102.7,1994.4z"/>
	<path class="st20" d="M-612.5,1994.6c-0.3,0.3-0.6,0.5-0.9,0.8C-613.3,1995-613,1994.7-612.5,1994.6z"/>
	<path class="st62" d="M67.9,1967.8c-0.5-0.1-0.9-0.4-1.1-0.9C67.3,1967,67.7,1967.3,67.9,1967.8z"/>
	<path class="st20" d="M-626.1,2006.5c0.1-0.5,0.4-0.7,1-0.9c0,0,0.1,0.1,0.1,0.1c0.3,0.3,0.3,0.6,0,0.9
		C-625.4,2006.9-625.7,2006.8-626.1,2006.5L-626.1,2006.5z"/>
	<path class="st62" d="M-577.7,1967.8c-0.4,0.3-0.7,0.5-1.1,0.8C-578.6,1968.2-578.2,1967.9-577.7,1967.8z"/>
	<path class="st62" d="M-578.7,1968.6c-0.2,0.5-0.5,0.8-1.1,0.9C-579.6,1969-579.2,1968.7-578.7,1968.6z"/>
	<path class="st58" d="M-598.2,1983.1c0.3-0.3,0.7-0.5,1-0.8c0.1,0.2,0.2,0.4,0.3,0.6c-0.2,0.4-0.6,0.5-1.1,0.5L-598.2,1983.1z"/>
	<path class="st63" d="M87,1981.7c0.5,0.1,0.9,0.4,1,0.8c0,0,0,0,0,0C87.2,1982.6,86.9,1982.4,87,1981.7L87,1981.7z"/>
	<path class="st62" d="M71.7,1970.4c-0.3-0.3-0.7-0.5-1-0.8C71.2,1969.6,71.5,1969.9,71.7,1970.4z"/>
	<path class="st65" d="M114.4,2004.6c0.3,0.3,0.6,0.6,1,0.9c0,0-0.3,0.3-0.3,0.3c-0.3,0.2-0.6,0.2-0.9,0c-0.2-0.3-0.2-0.6,0-0.8
		L114.4,2004.6z"/>
	<path class="st58" d="M-597.2,1982.3c0.2-0.4,0.5-0.7,1-0.8c0.1,0.2,0.2,0.4,0.2,0.6c-0.2,0.4-0.6,0.5-1.1,0.4L-597.2,1982.3z"/>
	<path class="st62" d="M-582.5,1971.3c0.3-0.3,0.7-0.5,1-0.8c0,0,0,0,0,0c0.1,0.4,0,0.7-0.4,0.9
		C-582.1,1971.3-582.3,1971.3-582.5,1971.3z"/>
	<path class="st62" d="M71.6,1971.3c0-0.3,0-0.6,0-0.9c0.5,0.1,0.9,0.3,1.1,0.8c-0.1,0.1-0.2,0.2-0.3,0.4
		C72.1,1971.5,71.8,1971.5,71.6,1971.3z"/>
	<path class="st65" d="M101.7,1993.6c0.5,0.1,0.9,0.4,1,0.8c0,0-0.1,0.1-0.1,0.1c-0.8,0.1-1.1-0.2-1-0.9L101.7,1993.6z"/>
	<path class="st62" d="M-583.6,1972.1c0.2-0.5,0.5-0.7,1-0.8c0,0,0,0,0,0c0.1,0.4,0,0.7-0.4,0.9
		C-583.1,1972.2-583.3,1972.1-583.6,1972.1z"/>
	<path class="st62" d="M72.7,1971.1c0.4,0.3,0.7,0.5,1.1,0.8c0,0-0.3,0.3-0.3,0.3c-0.8,0.2-1.1-0.1-1-0.8
		C72.5,1971.3,72.7,1971.1,72.7,1971.1z"/>
	<path class="st62" d="M-584.6,1972.9c0.2-0.4,0.5-0.7,1.1-0.8c0,0,0.1,0.1,0.1,0.1c0.1,0.4-0.1,0.8-0.5,1
		C-584.2,1973-584.4,1972.9-584.6,1972.9z"/>
	<path class="st62" d="M-585.7,1973.6c0.4-0.3,0.7-0.5,1.1-0.8c0,0,0.2,0.2,0.2,0.2c0.1,0.7-0.2,1-1,0.9L-585.7,1973.6z"/>
	<path class="st58" d="M-596.2,1981.5c0.2-0.5,0.5-0.7,1-0.8c0.1,0.1,0.2,0.2,0.3,0.3c0,0.3-0.1,0.6-0.3,0.8
		c-0.3,0.1-0.6,0.1-0.9-0.2L-596.2,1981.5z"/>
	<path class="st62" d="M75.4,1973c0.5,0.1,0.9,0.3,1,0.8c-0.2,0-0.4,0.1-0.6,0.1C75.5,1973.7,75.3,1973.4,75.4,1973L75.4,1973z"/>
	<path class="st62" d="M76.5,1973.8c0.5,0.1,0.9,0.3,1.1,0.8c-0.2,0.1-0.4,0.1-0.6,0.2C76.5,1974.6,76.3,1974.3,76.5,1973.8
		L76.5,1973.8z"/>
	<path class="st63" d="M84.3,1979.7c0.4,0.3,0.7,0.5,1.1,0.8c0,0-0.3,0.2-0.3,0.2c-0.5,0.1-0.9-0.1-1.1-0.5
		C84.1,1980.1,84.2,1979.9,84.3,1979.7z"/>
	<path class="st58" d="M-588.3,1975.6c0.2-0.4,0.5-0.7,1-0.8c0,0,0,0,0,0c0.1,0.4,0,0.7-0.4,0.9
		C-587.9,1975.6-588.1,1975.6-588.3,1975.6z"/>
	<path class="st62" d="M77.5,1974.6c0.5,0.1,0.9,0.3,1,0.8c0,0-0.2,0.2-0.2,0.2c-0.8,0.1-1.1-0.1-1-0.9L77.5,1974.6z"/>
	<path class="st58" d="M-589.4,1976.4c0.1-0.5,0.5-0.7,1-0.8l0.1,0c0.1,0.4-0.1,0.7-0.5,0.9C-589,1976.5-589.2,1976.4-589.4,1976.4z
		"/>
	<path class="st58" d="M-595.1,1980.7c0.2-0.5,0.5-0.7,1-0.8c0,0.2,0.1,0.4,0.1,0.5C-594.3,1980.8-594.6,1980.9-595.1,1980.7
		L-595.1,1980.7z"/>
	<path class="st58" d="M-590.4,1977.2c0.2-0.4,0.5-0.7,1.1-0.8c0,0,0.1,0.1,0.1,0.1c0.1,0.4-0.1,0.8-0.6,1
		C-590,1977.3-590.2,1977.2-590.4,1977.2z"/>
	<path class="st58" d="M-591.5,1977.9c0.3-0.3,0.7-0.5,1-0.8c0,0,0.2,0.2,0.2,0.2c0.2,0.7-0.2,1-1,0.9L-591.5,1977.9z"/>
	<path class="st62" d="M81.2,1977.3c0.5,0.1,0.9,0.4,1,0.8c-0.2,0-0.4,0.1-0.6,0.1C81.3,1978.1,81.1,1977.7,81.2,1977.3L81.2,1977.3
		z"/>
	<path class="st63" d="M82.3,1978.1c0.5,0.1,0.9,0.4,1,0.8c-0.1,0.1-0.2,0.2-0.4,0.3c-0.4,0-0.7,0-0.9-0.3c-0.1-0.3-0.1-0.6,0.2-0.8
		L82.3,1978.1z"/>
	<path class="st26" d="M-708.4,2103.8c-0.3,0.3-0.5,0.6-0.8,0.9C-709.1,2104.2-708.9,2103.9-708.4,2103.8z"/>
	<path class="st63" d="M83.3,1978.9c0.5,0.1,0.9,0.4,1,0.8c0,0-0.2,0.2-0.2,0.2c-0.8,0.1-1.1-0.1-1-0.8L83.3,1978.9z"/>
	<path class="st58" d="M-594.1,1979.9c0.2-0.5,0.5-0.7,1-0.8c0,0,0,0,0,0C-593,1979.8-593.3,1980.1-594.1,1979.9L-594.1,1979.9z"/>
	<path class="st26" d="M-709.4,2105.3c-0.1,0.5-0.3,0.9-0.8,1.2C-709.9,2106.1-709.7,2105.7-709.4,2105.3z"/>
	<path class="st13" d="M138.2,2027.3c-0.3-0.3-0.6-0.6-0.8-0.8C137.9,2026.5,138.2,2026.8,138.2,2027.3z"/>
	<path class="st64" d="M-731.4,2519c0.5,0.3,0.7,0.7,0.7,1.2C-731.2,2519.9-731.4,2519.5-731.4,2519z"/>
	<path class="st65" d="M104.6,1996.1c-0.4,0-0.7,0.1-1.1,0.1c-0.3-0.2-0.4-0.3-0.4-0.5c0.1-0.2,0.2-0.3,0.3-0.3c0,0,0.2-0.2,0.2-0.2
		C104,1995.5,104.3,1995.8,104.6,1996.1z"/>
	<path class="st65" d="M-626,2006.6c0.3,0,0.6-0.1,0.9-0.1c2.6-0.3,5.1-0.4,7.7-0.4c241.8,0,483.5,0,725.3,0c2.4,0,4.8-0.1,7.2,0.4
		c0.3,0,0.6,0,0.9,0c0.3,0.3,0.6,0.6,1,0.9c0.3,0.3,0.6,0.6,1,0.9c0.3,0.3,0.6,0.6,1,0.9c0.3,0.3,0.6,0.6,1,0.9
		c0.3,0.3,0.6,0.6,1,0.9c0.3,0.3,0.6,0.6,1,0.9c0.3,0.3,0.6,0.6,1,0.9c0.3,0.3,0.6,0.6,0.9,0.9c-0.5,1-1.3,1.6-2.6,1.6
		c-1.6,0-3.2,0-4.8,0c-203.1,0-406.2,0-609.3,0c-44,0-88,0-132,0c-1.6,0-3.3,0.1-4.8-0.2c-1.4-0.2-2.9-0.7-2.9-2.4
		c0.3-0.3,0.6-0.6,0.9-0.9c0.3-0.3,0.6-0.6,1-0.9c0.3-0.3,0.6-0.6,1-0.9s0.6-0.6,1-0.9c0.3-0.3,0.6-0.6,1-0.9s0.6-0.6,1-0.9
		C-626.7,2007.2-626.4,2006.9-626,2006.6z"/>
	<path class="st66" d="M82.2,1978.2c0,0.3,0.1,0.5,0.1,0.8c-1.7,2.2-4.4,2.1-7,2.1c-11.4,0-22.9,0-34.3,0c-207.8,0-415.6,0-623.4,0
		c-3,0-6.6,1-8.8-2.1c0-0.3,0-0.6,0-0.8c0.3-0.3,0.6-0.6,1-0.9c0.3-0.3,0.6-0.6,1-0.9c0.3-0.3,0.6-0.6,1-0.9c0.3-0.3,0.7-0.6,1-0.8
		c0.8-0.1,1.5-0.2,1.9-0.9c0.3-0.3,0.7-0.6,1-0.9c0.3-0.3,0.6-0.6,1-0.9c0.3-0.3,0.6-0.6,1-0.9c0.3-0.3,0.6-0.6,1-0.8
		c0.3,0,0.6,0,0.9,0c0.5,1,1.4,1.6,2.6,1.6c1.3,0,2.6,0,3.9,0c213,0,426.1,0,639.1,0c2.2,0,4.5,0.3,6.6-0.9c0.3,0,0.6,0,0.9,0.1
		c0.3,0.3,0.7,0.6,1,0.8c0.4,0.7,1.1,0.8,1.9,0.9c0.3,0.3,0.6,0.6,1,0.8c0.3,0.3,0.6,0.6,1,0.9c0.3,0.3,0.7,0.6,1,0.9
		c0.6,1.1,1.5,1.7,2.9,1.8C81.5,1977.6,81.9,1977.9,82.2,1978.2z"/>
	<path class="st37" d="M-773.2,2293.3c65.3,0,130.6,0,195.9,0c278.2,0,556.4,0,834.5,0c2.3,0,4.5,0,6.8,0c-0.4,0.5-1,0.8-1.6,0.8
		c-1.6,0-3.2,0-4.8,0c-264.2,0-528.5,0-792.7,0c-0.3,0.3-0.6,0.3-1,0c-76.9,0-153.7,0-230.6,0c-1.5,0-2.9,0-4.4,0
		C-771.9,2294.2-772.6,2293.9-773.2,2293.3z"/>
	<path class="st30" d="M-536.1,2294.2c0.3,0,0.6,0,1,0C-535.4,2294.8-535.8,2294.8-536.1,2294.2z"/>
	<path class="st31" d="M-772.2,2281.3c0-0.3,0-0.6,0-0.9c109.4,0,218.9,0,328.3,0c1.5,0,2.9,0,4.4,0c0.8,0,1.6,0.2,2.1,0.8
		C-549,2281.3-660.6,2281.3-772.2,2281.3z"/>
	<path class="st31" d="M-189.7,2281.3c-82.3,0-164.5,0-246.8,0c0.5-0.6,1.3-0.8,2.1-0.8c1.3,0,2.6,0,3.9,0c78.3,0,156.5,0,234.8,0
		c1.3,0,2.6,0,3.9,0C-190.9,2280.4-190.2,2280.7-189.7,2281.3z"/>
	<path class="st64" d="M228.4,2503.4c-320.9,0-641.8,0-962.7,0c-1.3,0-2.6,0-3.9,0c0.4-0.5,0.9-0.8,1.6-0.8c1.5,0,2.9,0,4.4,0
		c318.2,0,636.5,0,954.7,0c1.5,0,2.9,0,4.4,0C227.4,2502.6,227.9,2503,228.4,2503.4z"/>
	<path class="st35" d="M209,2122c-0.4,0.5-0.9,0.8-1.6,0.8c-1.5,0-2.9,0-4.4,0c-305,0-610.1,0-915.1,0c-1.5,0-2.9,0-4.4,0
		c-0.7,0-1.2-0.3-1.6-0.8c308.4,0,616.7,0,925.1,0C207.7,2121.5,208.4,2121.5,209,2122z"/>
	<path class="st35" d="M209,2122c-0.6,0-1.3,0-1.9,0c0.4-0.7,1.1-0.8,1.9-0.9C209,2121.4,209,2121.7,209,2122z"/>
	<path class="st48" d="M260.3,2266.6c-0.5,0.6-1.3,0.8-2.1,0.8c-1.6,0-3.2,0-4.8,0c-341.2,0-682.4,0-1023.6,0c0-0.3,0-0.6,0-0.9
		c1.7-0.8,3.5-0.4,5.2-0.4c340,0,680,0,1020.1,0C256.8,2266.2,258.6,2265.8,260.3,2266.6z"/>
	<path class="st48" d="M260.3,2266.6c-343.5,0-687,0-1030.5,0c0-0.3,0-0.5,0-0.8c2.1,0,4.2,0,6.3,0c341.4,0,682.8,0,1024.2,0
		C260.3,2266.1,260.3,2266.3,260.3,2266.6z"/>
	<path class="st47" d="M-774.1,2305.4c0-0.3,0-0.6,0-0.9c151.4,0,302.8,0,454.1,0c1.5,0,2.9,0,4.4,0c0.8,0,1.6,0.2,2.1,0.8
		C-467.1,2305.4-620.6,2305.4-774.1,2305.4z"/>
	<path class="st63" d="M103.5,1995.4c0,0.3,0.1,0.5,0.1,0.8c-27.7,0-55.5,0-83.2,0c-6.9,0-13.8-0.1-20.7,0c-6.9,0-13.9,0-20.8,0
		s-13.9,0-20.8,0s-13.9,0-20.8,0s-13.9,0-20.8,0s-13.9,0-20.8,0s-13.9,0-20.8,0c-7.1,0-14.2,0-21.3,0c-6.9,0-13.9,0-20.8,0
		s-13.9,0-20.8,0s-13.9,0-20.8,0s-13.9,0-20.8,0s-13.9,0-20.8,0s-13.9,0-20.8,0s-13.9,0-20.8,0c-6.9,0-13.9,0-20.8,0s-13.9,0-20.8,0
		s-13.9,0-20.8,0s-13.9,0-20.8,0s-13.9,0-20.8,0c-6.9,0-13.9,0-20.8,0c-6.9,0-13.9,0-20.8,0c-7.1,0-14.2,0-21.3,0
		c-6.9,0-13.9,0-20.8,0s-13.9,0-20.8,0s-13.9,0-20.8,0c-6.9,0-13.9,0-20.8,0c-6.9,0-13.9,0-20.8,0c-6.9,0-13.9,0-20.8,0
		c-6.9,0-13.9,0-20.8,0c-1.6,0-3.2,0-4.8,0c-0.7,0-1.4-0.1-1.6-0.7c-0.2-0.6,0.2-1.1,0.7-1.5c0.6-0.7,1.2-1.3,1.8-2
		c0.3-0.3,0.6-0.6,1-0.9c0.3-0.3,0.7-0.6,1-0.8c0.3,0,0.6,0,0.9-0.1c1.3-0.7,2.7-0.8,4.2-0.7c7.4,0.4,14.8,0.2,22.2,0.2
		c220.4,0,440.8,0,661.2,0c4.3,0,8.7,0.2,12.9-1.2c0,0,0.1,0,0.1,0c0.3,0,0.6,0.1,0.9,0.1c0.3,0.3,0.6,0.6,1,0.8
		c0.3,0.3,0.6,0.6,1,0.9c0.3,0.3,0.6,0.6,1,0.9c0.3,0.3,0.6,0.6,1,0.9c0.3,0.3,0.6,0.6,1,0.9c0.3,0.3,0.6,0.6,1,0.9
		c0.3,0.3,0.6,0.6,1,0.9C102.8,1994.8,103.2,1995.1,103.5,1995.4z"/>
	<path class="st67" d="M-617.3,1998.9c0.3,0,0.6-0.1,0.9-0.1c1.2,0.5,2.3,0.9,3.7,0.9c1.3-0.1,2.6,0,3.9,0c236.3,0,472.5,0,708.8,0
		c1.5,0,2.9,0,4.4,0c0.8,0,1.6-0.2,2.1-0.8c0.3,0,0.6,0,0.9,0c0.3,0.3,0.6,0.6,1,0.8c0.3,0.3,0.6,0.6,1,0.9c0.3,0.3,0.6,0.6,1,0.9
		c0.3,0.3,0.6,0.6,1,0.9c0,0.3,0,0.6,0,0.8c-0.3,2-2.1,1.9-3.7,2c-1.8,0.2-3.5,0.1-5.3,0.1c-238.2,0-476.4,0-714.6,0
		c-1.8,0-3.6,0.1-5.3-0.1c-1.5-0.1-3.4,0-3.7-2c0-0.3,0-0.5,0.1-0.8c0.3-0.3,0.6-0.6,0.9-0.9c0.3-0.3,0.6-0.6,1-0.9
		c0.3-0.3,0.6-0.6,1-0.9C-618,1999.4-617.6,1999.2-617.3,1998.9z"/>
	<path class="st53" d="M233.1,2169.4c0,0.6,0,1.1,0.1,1.7c-0.4,0.5-0.9,0.8-1.6,0.8c-1.6,0-3.2,0-4.8,0c-323.3,0-646.6,0-969.9,0
		c0-0.6,0-1.1,0.1-1.7c0.3,0,0.6-0.1,0.9-0.1c322.8,0,645.7,0,968.5,0c1.5,0,2.9,0,4.4,0c0.7,0,1.2-0.3,1.6-0.8
		C232.5,2169.3,232.8,2169.3,233.1,2169.4z"/>
	<path class="st35" d="M-502.2,2123.7c0.3,0,0.6,0,1,0C-501.6,2124.3-501.9,2124.3-502.2,2123.7z"/>
	<path class="st68" d="M94.8,1988.5c-0.1,0.6-0.2,1.1-0.8,1.5c-1.1,0.7-2.3,1.1-3.6,1.1c-1.5,0-2.9,0-4.4,0c-225.7,0-451.3,0-677,0
		c-5,0-10,0.3-14.9-0.9c0-0.3,0-0.5,0.1-0.8c0.3-0.3,0.6-0.6,1-0.9c0.3-0.3,0.6-0.6,1-0.9c0.3-0.3,0.6-0.6,1-0.9
		c0.3-0.3,0.6-0.6,1-0.9c0.3-0.3,0.6-0.6,1-0.8c0.6,0,1.3,0,1.9-0.1c2.4-1.5,5.2-1.3,7.9-1.3c86.7,0,173.5,0,260.2,0
		c136.7,0,273.5,0,410.2,0c3.2,0,6.4-0.4,9.6,0.4c0.3,0,0.6,0,0.9,0.1c0.3,0.3,0.7,0.6,1,0.8c0.3,0.3,0.6,0.6,1,0.9
		c0.3,0.3,0.6,0.6,1,0.9c0.3,0.3,0.6,0.6,1,0.9C94.1,1987.9,94.5,1988.2,94.8,1988.5z"/>
	<path class="st62" d="M89,1984.2c-0.5,0.6-1.3,0.8-2.1,0.8c-1.6,0-3.2,0-4.8,0c-227,0-454,0-681.1,0c0.3-0.6,0.7-1.1,1-1.7
		c0.3-0.3,0.6-0.6,1-0.9c0.3-0.3,0.7-0.6,1-0.8c0.3,0,0.6-0.1,0.9-0.1c3.2-0.8,6.4-0.4,9.6-0.4c206.8,0,413.6,0,620.4,0
		c15.3,0,30.6,0.1,45.9-0.1c1.5,0,2.9,0.2,4.3,0.5c0.6,0,1.3,0,1.9,0.1c0.3,0.3,0.7,0.6,1,0.8c0.3,0.3,0.6,0.6,0.9,0.9
		C89,1983.6,89,1983.9,89,1984.2z"/>
	<path class="st62" d="M85.1,1981.6c-1.6,0.9-3.3,0.9-5.1,0.9c-8.7,0-17.4-0.1-26.1,0c-10.8,0.1-21.5-0.1-32.3,0
		c-10.6,0-21.3,0-31.9,0c-10.8,0-21.6,0-32.4,0c-10.6,0-21.3,0-31.9,0c-10.8,0-21.6,0-32.4,0c-10.6,0-21.3,0-31.9,0
		c-10.8,0-21.6,0-32.4,0c-10.6,0-21.3,0-31.9,0c-10.8,0-21.6,0-32.4,0c-10.8,0-21.6,0-32.4,0c-10.6,0-21.3,0-31.9,0
		c-10.8,0-21.6,0-32.4,0c-10.6,0-21.3,0-31.9,0c-10.8,0-21.6,0-32.4,0c-10.6,0-21.3,0-31.9,0c-10.8,0-21.6,0-32.4,0
		c-10.6,0-21.3,0-31.9,0c-10.8,0-21.6,0-32.4,0c-10.6,0-21.3,0-31.9,0c-10.8,0-21.6,0-32.4,0c-1.8,0-3.9,0.7-5.5-0.8
		c0-0.3,0-0.5,0.1-0.8c0.3-0.3,0.6-0.6,0.9-0.9c0.3-0.3,0.7-0.6,1-0.8c0.6,0,1.3,0,1.9-0.1c1.2,0.5,2.3,0.9,3.7,0.9
		c1.3-0.1,2.6,0,3.9,0c219.1,0,438.2,0,657.4,0c2.9,0,5.8,0,8.6-0.9c0.3,0,0.6,0,0.9,0.1c0.3,0.3,0.7,0.6,1,0.8
		c0.3,0.3,0.6,0.6,1,0.9C85.1,1981,85.1,1981.3,85.1,1981.6z"/>
	<path class="st65" d="M115.1,2006.6c-0.5,0.6-1.3,0.8-2.1,0.8c-1.3,0-2.6,0-3.9,0c-242.8,0-485.5,0-728.3,0c-1.3,0-2.6,0-3.9,0
		c-0.8,0-1.6-0.2-2.1-0.8c0-0.3,0-0.5,0.1-0.8c0.3,0,0.6-0.1,0.9-0.1c2.9-0.4,5.8-0.4,8.7-0.4c123,0,246.1,0,369.1,0
		c0.6,0,1.3,0,1.9,0c116.7,0.1,233.3,0,350,0c2.6,0,5.2-0.2,7.7,0.2c0.3,0,0.6,0.1,1,0.1c0.3,0,0.6,0,0.9,0
		C115.1,2006,115.1,2006.3,115.1,2006.6z"/>
	<path class="st69" d="M-245.8,2006.6c-124,0-247.9,0-371.9,0c-1.5,0-2.9,0-4.4,0c-0.8,0-1.6-0.2-2.1-0.8c0-0.3,0-0.5,0.1-0.8
		c0.3,0,0.6-0.1,0.9-0.1c124.1,0,248.1,0,372.2,0.1C-249.2,2004.9-246.6,2003.8-245.8,2006.6z"/>
	<path class="st69" d="M-245.8,2006.6c-0.5-0.6-1.3-0.8-2.1-0.8c-1.5,0-2.9,0-4.4,0c-121.5,0-243,0-364.5,0c-1.5,0-2.9,0-4.4,0
		c-0.8,0-1.6-0.2-2.1-0.8c0-0.3,0-0.5,0.1-0.8c0.3-0.3,0.6-0.6,0.9-0.8c0.3,0,0.6-0.1,0.9-0.1c0.5,0.6,1.3,0.8,2.1,0.8
		c1.3,0,2.6,0,3.9,0c240.2,0,480.4,0,720.6,0c1.3,0,2.6,0,3.9,0c0.8,0,1.6-0.2,2.1-0.8c0.3,0,0.6,0,0.9,0c0.3,0.3,0.6,0.6,1,0.9
		c0.3,0.3,0.6,0.6,1,0.9c0,0.3,0,0.6,0,0.8c-1.8,0.8-3.8,0.4-5.7,0.4c-115.9,0-231.7,0-347.6,0c-1.9,0-3.9-0.4-5.7,0.4
		C-245.1,2006.6-245.5,2006.6-245.8,2006.6z"/>
	<path class="st69" d="M-244.8,2006.6c0.5-0.6,1.3-0.8,2.1-0.8c1.5,0,2.9,0,4.4,0c117.5,0,235,0,352.5,0c-0.5,0.6-1.3,0.8-2.1,0.8
		c-1.5,0-2.9,0-4.4,0C-9.8,2006.6-127.3,2006.6-244.8,2006.6z"/>
</g>
<ellipse class="st70" cx="500" cy="525.5" rx="535.3" ry="632.3"/>
<text transform="matrix(0.8453 0 0 1 81.9555 767.8102)" class="st71 st72 st73">M</text>
<text transform="matrix(0.9588 0 0 1 534.2053 776.7239)" class="st74 st75 st76">T</text>
<g>
	<rect x="472.7" y="1594.2" class="st77" width="669.6" height="236.3"/>
	<rect x="472.7" y="1830.5" class="st78" width="669.6" height="213.8"/>
	<rect x="472.7" y="2044.3" class="st79" width="669.6" height="95.6"/>
	<rect x="472.7" y="2139.9" class="st80" width="669.6" height="112.5"/>
</g>
</svg>
